<?xml version="1.0" encoding="utf-8" standalone="no"?>
<!DOCTYPE svg PUBLIC "-//W3C//DTD SVG 1.1//EN"
  "http://www.w3.org/Graphics/SVG/1.1/DTD/svg11.dtd">
<svg xmlns:xlink="http://www.w3.org/1999/xlink" width="354.978068pt" height="341.489531pt" viewBox="0 0 354.978068 341.489531" xmlns="http://www.w3.org/2000/svg" version="1.1">
 <metadata>
  <rdf:RDF xmlns:dc="http://purl.org/dc/elements/1.1/" xmlns:cc="http://creativecommons.org/ns#" xmlns:rdf="http://www.w3.org/1999/02/22-rdf-syntax-ns#">
   <cc:Work>
    <dc:type rdf:resource="http://purl.org/dc/dcmitype/StillImage"/>
    <dc:date>2024-11-04T14:06:53.877354</dc:date>
    <dc:format>image/svg+xml</dc:format>
    <dc:creator>
     <cc:Agent>
      <dc:title>Matplotlib v3.9.2, https://matplotlib.org/</dc:title>
     </cc:Agent>
    </dc:creator>
   </cc:Work>
  </rdf:RDF>
 </metadata>
 <defs>
  <style type="text/css">*{stroke-linejoin: round; stroke-linecap: butt}</style>
 </defs>
 <g id="figure_1">
  <g id="patch_1">
   <path d="M 0 341.489531 
L 354.978068 341.489531 
L 354.978068 0 
L 0 0 
z
" style="fill: #ffffff"/>
  </g>
  <g id="axes_1">
   <g id="patch_2">
    <path d="M 7.2 284.4 
L 342 284.4 
L 342 7.2 
L 7.2 7.2 
z
" style="fill: #ffffff"/>
   </g>
   <g id="PolyCollection_1"/>
   <g id="PolyCollection_2"/>
   <g id="PolyCollection_3"/>
   <g id="PolyCollection_4"/>
   <g id="PolyCollection_5"/>
   <g id="PolyCollection_6"/>
   <g id="PolyCollection_7"/>
   <g id="PolyCollection_8"/>
   <g id="PolyCollection_9"/>
   <g id="PolyCollection_10"/>
   <g id="PolyCollection_11"/>
   <g id="PolyCollection_12"/>
   <g id="PolyCollection_13"/>
   <g id="PolyCollection_14"/>
   <g id="PolyCollection_15"/>
   <g id="PolyCollection_16"/>
   <g id="PolyCollection_17"/>
   <g id="PolyCollection_18"/>
   <g id="PolyCollection_19"/>
   <g id="PolyCollection_20"/>
   <g id="matplotlib.axis_1">
    <g id="xtick_1">
     <g id="line2d_1">
      <defs>
       <path id="m4ab72a76ac" d="M 0 0 
L 0 9 
" style="stroke: #000000; stroke-width: 1.875"/>
      </defs>
      <g>
       <use xlink:href="#m4ab72a76ac" x="22.418182" y="284.4" style="stroke: #000000; stroke-width: 1.875"/>
      </g>
     </g>
     <g id="text_1">
      <!-- 0 -->
      <g transform="translate(17.169119 309.437422) scale(0.165 -0.165)">
       <defs>
        <path id="DejaVuSans-30" d="M 2034 4250 
Q 1547 4250 1301 3770 
Q 1056 3291 1056 2328 
Q 1056 1369 1301 889 
Q 1547 409 2034 409 
Q 2525 409 2770 889 
Q 3016 1369 3016 2328 
Q 3016 3291 2770 3770 
Q 2525 4250 2034 4250 
z
M 2034 4750 
Q 2819 4750 3233 4129 
Q 3647 3509 3647 2328 
Q 3647 1150 3233 529 
Q 2819 -91 2034 -91 
Q 1250 -91 836 529 
Q 422 1150 422 2328 
Q 422 3509 836 4129 
Q 1250 4750 2034 4750 
z
" transform="scale(0.015625)"/>
       </defs>
       <use xlink:href="#DejaVuSans-30"/>
      </g>
     </g>
    </g>
    <g id="xtick_2">
     <g id="line2d_2">
      <g>
       <use xlink:href="#m4ab72a76ac" x="83.290909" y="284.4" style="stroke: #000000; stroke-width: 1.875"/>
      </g>
     </g>
     <g id="text_2">
      <!-- 200 -->
      <g transform="translate(67.543722 309.437422) scale(0.165 -0.165)">
       <defs>
        <path id="DejaVuSans-32" d="M 1228 531 
L 3431 531 
L 3431 0 
L 469 0 
L 469 531 
Q 828 903 1448 1529 
Q 2069 2156 2228 2338 
Q 2531 2678 2651 2914 
Q 2772 3150 2772 3378 
Q 2772 3750 2511 3984 
Q 2250 4219 1831 4219 
Q 1534 4219 1204 4116 
Q 875 4013 500 3803 
L 500 4441 
Q 881 4594 1212 4672 
Q 1544 4750 1819 4750 
Q 2544 4750 2975 4387 
Q 3406 4025 3406 3419 
Q 3406 3131 3298 2873 
Q 3191 2616 2906 2266 
Q 2828 2175 2409 1742 
Q 1991 1309 1228 531 
z
" transform="scale(0.015625)"/>
       </defs>
       <use xlink:href="#DejaVuSans-32"/>
       <use xlink:href="#DejaVuSans-30" x="63.623047"/>
       <use xlink:href="#DejaVuSans-30" x="127.246094"/>
      </g>
     </g>
    </g>
    <g id="xtick_3">
     <g id="line2d_3">
      <g>
       <use xlink:href="#m4ab72a76ac" x="144.163636" y="284.4" style="stroke: #000000; stroke-width: 1.875"/>
      </g>
     </g>
     <g id="text_3">
      <!-- 400 -->
      <g transform="translate(128.416449 309.437422) scale(0.165 -0.165)">
       <defs>
        <path id="DejaVuSans-34" d="M 2419 4116 
L 825 1625 
L 2419 1625 
L 2419 4116 
z
M 2253 4666 
L 3047 4666 
L 3047 1625 
L 3713 1625 
L 3713 1100 
L 3047 1100 
L 3047 0 
L 2419 0 
L 2419 1100 
L 313 1100 
L 313 1709 
L 2253 4666 
z
" transform="scale(0.015625)"/>
       </defs>
       <use xlink:href="#DejaVuSans-34"/>
       <use xlink:href="#DejaVuSans-30" x="63.623047"/>
       <use xlink:href="#DejaVuSans-30" x="127.246094"/>
      </g>
     </g>
    </g>
    <g id="xtick_4">
     <g id="line2d_4">
      <g>
       <use xlink:href="#m4ab72a76ac" x="205.036364" y="284.4" style="stroke: #000000; stroke-width: 1.875"/>
      </g>
     </g>
     <g id="text_4">
      <!-- 600 -->
      <g transform="translate(189.289176 309.437422) scale(0.165 -0.165)">
       <defs>
        <path id="DejaVuSans-36" d="M 2113 2584 
Q 1688 2584 1439 2293 
Q 1191 2003 1191 1497 
Q 1191 994 1439 701 
Q 1688 409 2113 409 
Q 2538 409 2786 701 
Q 3034 994 3034 1497 
Q 3034 2003 2786 2293 
Q 2538 2584 2113 2584 
z
M 3366 4563 
L 3366 3988 
Q 3128 4100 2886 4159 
Q 2644 4219 2406 4219 
Q 1781 4219 1451 3797 
Q 1122 3375 1075 2522 
Q 1259 2794 1537 2939 
Q 1816 3084 2150 3084 
Q 2853 3084 3261 2657 
Q 3669 2231 3669 1497 
Q 3669 778 3244 343 
Q 2819 -91 2113 -91 
Q 1303 -91 875 529 
Q 447 1150 447 2328 
Q 447 3434 972 4092 
Q 1497 4750 2381 4750 
Q 2619 4750 2861 4703 
Q 3103 4656 3366 4563 
z
" transform="scale(0.015625)"/>
       </defs>
       <use xlink:href="#DejaVuSans-36"/>
       <use xlink:href="#DejaVuSans-30" x="63.623047"/>
       <use xlink:href="#DejaVuSans-30" x="127.246094"/>
      </g>
     </g>
    </g>
    <g id="xtick_5">
     <g id="line2d_5">
      <g>
       <use xlink:href="#m4ab72a76ac" x="265.909091" y="284.4" style="stroke: #000000; stroke-width: 1.875"/>
      </g>
     </g>
     <g id="text_5">
      <!-- 800 -->
      <g transform="translate(250.161903 309.437422) scale(0.165 -0.165)">
       <defs>
        <path id="DejaVuSans-38" d="M 2034 2216 
Q 1584 2216 1326 1975 
Q 1069 1734 1069 1313 
Q 1069 891 1326 650 
Q 1584 409 2034 409 
Q 2484 409 2743 651 
Q 3003 894 3003 1313 
Q 3003 1734 2745 1975 
Q 2488 2216 2034 2216 
z
M 1403 2484 
Q 997 2584 770 2862 
Q 544 3141 544 3541 
Q 544 4100 942 4425 
Q 1341 4750 2034 4750 
Q 2731 4750 3128 4425 
Q 3525 4100 3525 3541 
Q 3525 3141 3298 2862 
Q 3072 2584 2669 2484 
Q 3125 2378 3379 2068 
Q 3634 1759 3634 1313 
Q 3634 634 3220 271 
Q 2806 -91 2034 -91 
Q 1263 -91 848 271 
Q 434 634 434 1313 
Q 434 1759 690 2068 
Q 947 2378 1403 2484 
z
M 1172 3481 
Q 1172 3119 1398 2916 
Q 1625 2713 2034 2713 
Q 2441 2713 2670 2916 
Q 2900 3119 2900 3481 
Q 2900 3844 2670 4047 
Q 2441 4250 2034 4250 
Q 1625 4250 1398 4047 
Q 1172 3844 1172 3481 
z
" transform="scale(0.015625)"/>
       </defs>
       <use xlink:href="#DejaVuSans-38"/>
       <use xlink:href="#DejaVuSans-30" x="63.623047"/>
       <use xlink:href="#DejaVuSans-30" x="127.246094"/>
      </g>
     </g>
    </g>
    <g id="xtick_6">
     <g id="line2d_6">
      <g>
       <use xlink:href="#m4ab72a76ac" x="326.781818" y="284.4" style="stroke: #000000; stroke-width: 1.875"/>
      </g>
     </g>
     <g id="text_6">
      <!-- 1000 -->
      <g transform="translate(305.785568 309.437422) scale(0.165 -0.165)">
       <defs>
        <path id="DejaVuSans-31" d="M 794 531 
L 1825 531 
L 1825 4091 
L 703 3866 
L 703 4441 
L 1819 4666 
L 2450 4666 
L 2450 531 
L 3481 531 
L 3481 0 
L 794 0 
L 794 531 
z
" transform="scale(0.015625)"/>
       </defs>
       <use xlink:href="#DejaVuSans-31"/>
       <use xlink:href="#DejaVuSans-30" x="63.623047"/>
       <use xlink:href="#DejaVuSans-30" x="127.246094"/>
       <use xlink:href="#DejaVuSans-30" x="190.869141"/>
      </g>
     </g>
    </g>
    <g id="text_7">
     <!-- x -->
     <g transform="translate(169.273125 330.546094) scale(0.18 -0.18)">
      <defs>
       <path id="DejaVuSans-78" d="M 3513 3500 
L 2247 1797 
L 3578 0 
L 2900 0 
L 1881 1375 
L 863 0 
L 184 0 
L 1544 1831 
L 300 3500 
L 978 3500 
L 1906 2253 
L 2834 3500 
L 3513 3500 
z
" transform="scale(0.015625)"/>
      </defs>
      <use xlink:href="#DejaVuSans-78"/>
     </g>
    </g>
   </g>
   <g id="matplotlib.axis_2"/>
   <g id="line2d_7">
    <path d="M 22.418182 271.8 
L 326.781818 271.8 
L 326.781818 271.8 
" clip-path="url(#pb652c48174)" style="fill: none; stroke: #562666; stroke-width: 2.25; stroke-linecap: square"/>
   </g>
   <g id="line2d_8">
    <path d="M 22.418182 266.350784 
L 44.028 266.237054 
L 65.942182 265.898457 
L 89.073818 265.316285 
L 114.640364 264.443852 
L 145.381091 263.160626 
L 246.429818 258.753388 
L 271.387636 258.002089 
L 294.214909 257.533849 
L 316.129091 257.306234 
L 326.781818 257.278114 
L 326.781818 257.278114 
" clip-path="url(#pb652c48174)" style="fill: none; stroke: #612969; stroke-width: 2.25; stroke-linecap: square"/>
   </g>
   <g id="line2d_9">
    <path d="M 22.418182 244.084902 
L 33.070909 244.197036 
L 44.028 244.534118 
L 55.593818 245.114864 
L 68.377091 245.98602 
L 83.899636 247.281843 
L 134.119636 251.666487 
L 146.598545 252.421964 
L 158.164364 252.899459 
L 169.121455 253.128638 
L 179.774182 253.131759 
L 190.731273 252.908842 
L 201.992727 252.452752 
L 214.167273 251.729257 
L 227.863636 250.685115 
L 246.429818 249.026437 
L 277.170545 246.271354 
L 291.171273 245.263751 
L 303.345818 244.611126 
L 314.607273 244.230673 
L 325.564364 244.086689 
L 326.781818 244.084902 
L 326.781818 244.084902 
" clip-path="url(#pb652c48174)" style="fill: none; stroke: #6c2b6d; stroke-width: 2.25; stroke-linecap: square"/>
   </g>
   <g id="line2d_10">
    <path d="M 22.418182 230.891701 
L 29.722909 231.01181 
L 37.027636 231.356459 
L 44.636727 231.935223 
L 53.158909 232.810204 
L 63.507273 234.109033 
L 96.378545 238.425471 
L 104.900727 239.209188 
L 112.509818 239.689404 
L 119.814545 239.92952 
L 127.119273 239.940755 
L 134.424 239.72254 
L 142.033091 239.26333 
L 149.946545 238.561858 
L 159.077455 237.523518 
L 171.252 235.896977 
L 192.253091 233.07204 
L 201.384 232.08492 
L 209.297455 231.441434 
L 216.906545 231.04653 
L 224.211273 230.894605 
L 231.516 230.97318 
L 238.820727 231.27826 
L 246.429818 231.820062 
L 254.647636 232.627544 
L 264.387273 233.812729 
L 281.127273 236.122863 
L 294.519273 237.868534 
L 303.650182 238.837616 
L 311.563636 239.461139 
L 319.172727 239.834213 
L 326.477455 239.96388 
L 326.781818 239.964283 
L 326.781818 239.964283 
" clip-path="url(#pb652c48174)" style="fill: none; stroke: #772d6f; stroke-width: 2.25; stroke-linecap: square"/>
   </g>
   <g id="line2d_11">
    <path d="M 22.418182 217.698512 
L 27.896727 217.820214 
L 33.375273 218.166374 
L 39.158182 218.755661 
L 45.549818 219.634445 
L 53.463273 220.96356 
L 77.508 225.183857 
L 83.899636 225.980189 
L 89.682545 226.478835 
L 95.161091 226.729858 
L 100.639636 226.752328 
L 106.118182 226.545103 
L 111.596727 226.118719 
L 117.684 225.414637 
L 124.38 224.411923 
L 133.510909 222.795689 
L 149.946545 219.848468 
L 156.946909 218.848721 
L 163.034182 218.204879 
L 168.512727 217.840657 
L 173.991273 217.699852 
L 179.469818 217.789625 
L 184.948364 218.10541 
L 190.731273 218.666027 
L 197.122909 219.519086 
L 204.732 220.773515 
L 231.211636 225.373773 
L 237.298909 226.088991 
L 243.081818 226.545103 
L 248.560364 226.752328 
L 254.038909 226.729858 
L 259.517455 226.478835 
L 265.300364 225.980189 
L 271.387636 225.226896 
L 278.388 224.132169 
L 288.736364 222.256119 
L 301.519636 219.970704 
L 308.52 218.945116 
L 314.607273 218.272224 
L 320.390182 217.862657 
L 325.868727 217.702801 
L 326.781818 217.698512 
L 326.781818 217.698512 
" clip-path="url(#pb652c48174)" style="fill: none; stroke: #833070; stroke-width: 2.25; stroke-linecap: square"/>
   </g>
   <g id="line2d_12">
    <path d="M 22.418182 204.505333 
L 26.679273 204.622119 
L 30.940364 204.951349 
L 35.505818 205.521667 
L 40.68 206.400544 
L 46.767273 207.668193 
L 67.159636 212.113088 
L 72.333818 212.884457 
L 76.899273 213.340648 
L 81.160364 213.552826 
L 85.421455 213.548144 
L 89.682545 213.326826 
L 94.248 212.861592 
L 99.117818 212.133981 
L 104.596364 211.086389 
L 112.205455 209.382902 
L 124.075636 206.722186 
L 129.554182 205.727481 
L 134.424 205.061791 
L 138.989455 204.663783 
L 143.250545 204.50989 
L 147.511636 204.573837 
L 151.772727 204.852548 
L 156.338182 205.37407 
L 161.208 206.152376 
L 166.990909 207.307197 
L 176.121818 209.397097 
L 184.948364 211.348637 
L 190.426909 212.34585 
L 195.296727 213.014426 
L 199.862182 213.415533 
L 204.123273 213.572509 
L 208.384364 213.511678 
L 212.645455 213.235965 
L 217.210909 212.717361 
L 222.080727 211.941655 
L 227.863636 210.78902 
L 236.994545 208.700167 
L 246.125455 206.685583 
L 251.604 205.698463 
L 256.473818 205.041469 
L 261.039273 204.652783 
L 265.300364 204.508148 
L 269.561455 204.581437 
L 273.822545 204.869125 
L 278.388 205.39937 
L 283.257818 206.185432 
L 289.040727 207.346739 
L 298.476 209.51052 
L 306.998182 211.385309 
L 312.476727 212.374966 
L 317.346545 213.034866 
L 321.912 213.426663 
L 326.173091 213.574385 
L 326.781818 213.577736 
L 326.781818 213.577736 
" clip-path="url(#pb652c48174)" style="fill: none; stroke: #8f3371; stroke-width: 2.25; stroke-linecap: square"/>
   </g>
   <g id="line2d_13">
    <path d="M 22.418182 200.384446 
L 26.070545 200.259557 
L 29.722909 199.910378 
L 33.679636 199.299847 
L 37.940727 198.413512 
L 43.419273 197.023544 
L 58.637455 192.997738 
L 62.898545 192.176656 
L 66.855273 191.64045 
L 70.507636 191.367704 
L 74.16 191.322774 
L 77.812364 191.507945 
L 81.464727 191.913801 
L 85.421455 192.57833 
L 89.986909 193.584247 
L 95.769818 195.104236 
L 107.944364 198.366342 
L 112.509818 199.318256 
L 116.466545 199.922973 
L 120.118909 200.266111 
L 123.771273 200.384625 
L 127.423636 200.27249 
L 131.076 199.935408 
L 135.032727 199.336528 
L 139.293818 198.460278 
L 144.468 197.160453 
L 160.903636 192.845488 
L 165.164727 192.063182 
L 169.121455 191.570068 
L 172.773818 191.340889 
L 176.426182 191.340889 
L 180.078545 191.570068 
L 183.730909 192.016774 
L 187.687636 192.71959 
L 192.253091 193.759096 
L 198.644727 195.471458 
L 208.688727 198.17377 
L 213.254182 199.167216 
L 217.210909 199.817757 
L 220.863273 200.20883 
L 224.515636 200.378192 
L 228.168 200.317233 
L 231.820364 200.029051 
L 235.777091 199.4777 
L 240.038182 198.643151 
L 244.908 197.456915 
L 253.734545 195.020107 
L 260.126182 193.365908 
L 264.691636 192.406022 
L 268.648364 191.792592 
L 272.300727 191.440398 
L 275.953091 191.312323 
L 279.605455 191.41488 
L 283.257818 191.742854 
L 287.214545 192.332934 
L 291.475636 193.201531 
L 296.649818 194.495333 
L 313.389818 198.883005 
L 317.650909 199.656803 
L 321.607636 200.140556 
L 325.26 200.360339 
L 326.781818 200.384446 
L 326.781818 200.384446 
" clip-path="url(#pb652c48174)" style="fill: none; stroke: #9a3670; stroke-width: 2.25; stroke-linecap: square"/>
   </g>
   <g id="line2d_14">
    <path d="M 22.418182 178.11901 
L 25.461818 178.238896 
L 28.505455 178.571069 
L 31.853455 179.162309 
L 35.505818 180.03729 
L 40.071273 181.377043 
L 53.767636 185.587912 
L 57.42 186.388413 
L 60.768 186.89663 
L 63.811636 187.145245 
L 66.855273 187.178015 
L 69.898909 186.993364 
L 73.246909 186.550024 
L 76.594909 185.880324 
L 80.551636 184.850949 
L 85.725818 183.251306 
L 95.161091 180.286971 
L 99.117818 179.292825 
L 102.465818 178.661746 
L 105.813818 178.262745 
L 108.857455 178.1212 
L 111.901091 178.197601 
L 114.944727 178.488276 
L 118.292727 179.038535 
L 121.945091 179.877085 
L 126.206182 181.093157 
L 135.032727 183.933113 
L 139.902545 185.353619 
L 143.554909 186.210591 
L 146.902909 186.781479 
L 149.946545 187.092978 
L 152.990182 187.191145 
L 156.033818 187.07126 
L 159.077455 186.739086 
L 162.425455 186.147846 
L 166.077818 185.272866 
L 170.643273 183.933113 
L 184.339636 179.722244 
L 187.992 178.921742 
L 191.34 178.413525 
L 194.383636 178.16491 
L 197.427273 178.13214 
L 200.470909 178.316791 
L 203.818909 178.760131 
L 207.166909 179.429831 
L 211.123636 180.459207 
L 216.297818 182.05885 
L 225.733091 185.023185 
L 229.689818 186.01733 
L 233.037818 186.648409 
L 236.385818 187.04741 
L 239.429455 187.188956 
L 242.473091 187.112555 
L 245.516727 186.82188 
L 248.864727 186.27162 
L 252.517091 185.43307 
L 256.778182 184.216999 
L 265.604727 181.377043 
L 270.474545 179.956536 
L 274.126909 179.099564 
L 277.474909 178.528677 
L 280.518545 178.217177 
L 283.562182 178.11901 
L 286.605818 178.238896 
L 289.649455 178.571069 
L 292.997455 179.162309 
L 296.649818 180.03729 
L 301.215273 181.377043 
L 314.911636 185.587912 
L 318.564 186.388413 
L 321.912 186.89663 
L 324.955636 187.145245 
L 326.781818 187.191145 
L 326.781818 187.191145 
" clip-path="url(#pb652c48174)" style="fill: none; stroke: #a5396e; stroke-width: 2.25; stroke-linecap: square"/>
   </g>
   <g id="line2d_15">
    <path d="M 22.418182 164.925866 
L 25.157455 165.053941 
L 27.896727 165.406135 
L 30.940364 166.038177 
L 34.288364 166.979451 
L 38.549455 168.438543 
L 48.897818 172.120174 
L 52.245818 173.021779 
L 55.289455 173.608701 
L 58.028727 173.915312 
L 60.768 173.995487 
L 63.507273 173.84515 
L 66.246545 173.471944 
L 69.290182 172.819319 
L 72.638182 171.860241 
L 76.899273 170.387825 
L 86.943273 166.815073 
L 90.291273 165.910761 
L 93.334909 165.32079 
L 96.074182 165.011117 
L 98.813455 164.927742 
L 101.552727 165.074903 
L 104.292 165.445119 
L 107.335636 166.094822 
L 110.683636 167.051385 
L 114.944727 168.521941 
L 124.988727 172.097049 
L 128.336727 173.004061 
L 131.380364 173.597076 
L 134.119636 173.909806 
L 136.858909 173.996381 
L 139.598182 173.852397 
L 142.337455 173.485176 
L 145.381091 172.838401 
L 148.729091 171.884363 
L 152.990182 170.415681 
L 163.034182 166.838251 
L 166.382182 165.928549 
L 169.425818 165.332496 
L 172.165091 165.016711 
L 174.904364 164.926938 
L 177.643636 165.067743 
L 180.382909 165.431965 
L 183.426545 166.075807 
L 186.774545 167.027311 
L 191.035636 168.494103 
L 201.079636 172.073821 
L 204.427636 172.986203 
L 207.471273 173.585288 
L 210.210545 173.904125 
L 212.949818 173.997096 
L 215.689091 173.859471 
L 218.428364 173.49825 
L 221.472 172.857349 
L 224.82 171.908389 
L 229.081091 170.4435 
L 239.429455 166.769033 
L 242.777455 165.875605 
L 245.821091 165.297867 
L 248.560364 165.000457 
L 251.299636 164.929886 
L 254.038909 165.089743 
L 256.778182 165.4719 
L 259.821818 166.13325 
L 263.169818 167.099817 
L 267.430909 168.577726 
L 277.170545 172.050489 
L 280.518545 172.968206 
L 283.562182 173.573338 
L 286.301455 173.898269 
L 289.040727 173.997632 
L 291.78 173.866372 
L 294.519273 173.511165 
L 297.562909 172.876164 
L 300.910909 171.932319 
L 305.172 170.47128 
L 315.520364 166.792001 
L 318.868364 165.893113 
L 321.912 165.309246 
L 324.651273 165.005699 
L 326.781818 164.925866 
L 326.781818 164.925866 
" clip-path="url(#pb652c48174)" style="fill: none; stroke: #b13c6c; stroke-width: 2.25; stroke-linecap: square"/>
   </g>
   <g id="line2d_16">
    <path d="M 22.418182 160.804509 
L 24.853091 160.674842 
L 27.288 160.321141 
L 30.027273 159.678244 
L 33.070909 158.709163 
L 36.723273 157.29886 
L 46.158545 153.535867 
L 49.202182 152.634961 
L 51.941455 152.068789 
L 54.376364 151.791405 
L 56.811273 151.741665 
L 59.246182 151.922098 
L 61.681091 152.32353 
L 64.420364 153.013482 
L 67.464 154.023092 
L 71.420727 155.587822 
L 79.334182 158.768865 
L 82.377818 159.724776 
L 85.117091 160.352629 
L 87.552 160.691226 
L 89.986909 160.804956 
L 92.421818 160.688036 
L 94.856727 160.346412 
L 97.596 159.715537 
L 100.639636 158.756974 
L 104.292 157.354238 
L 114.031636 153.479387 
L 117.075273 152.592795 
L 119.814545 152.042402 
L 122.249455 151.780501 
L 124.684364 151.746799 
L 127.119273 151.943009 
L 129.554182 152.359154 
L 132.293455 153.063461 
L 135.337091 154.085218 
L 139.598182 155.785477 
L 146.598545 158.612395 
L 149.642182 159.602052 
L 152.381455 160.268687 
L 154.816364 160.646372 
L 157.251273 160.801471 
L 159.686182 160.726098 
L 162.121091 160.424084 
L 164.556 159.910786 
L 167.295273 159.113648 
L 170.643273 157.897179 
L 176.730545 155.377516 
L 180.991636 153.732849 
L 184.035273 152.784954 
L 186.774545 152.166202 
L 189.209455 151.836707 
L 191.644364 151.732553 
L 194.079273 151.859036 
L 196.514182 152.209723 
L 199.253455 152.849623 
L 202.297091 153.81609 
L 205.949455 155.224521 
L 215.384727 158.989997 
L 218.428364 159.89374 
L 221.167636 160.46305 
L 223.602545 160.743523 
L 226.037455 160.796469 
L 228.472364 160.619197 
L 230.907273 160.22072 
L 233.646545 159.533659 
L 236.690182 158.526509 
L 240.646909 156.963492 
L 248.560364 153.780268 
L 251.604 152.821704 
L 254.343273 152.19083 
L 256.778182 151.849205 
L 259.213091 151.732285 
L 261.648 151.846015 
L 264.082909 152.184612 
L 266.822182 152.812465 
L 269.865818 153.768376 
L 273.518182 155.169185 
L 283.257818 159.046613 
L 286.301455 159.936086 
L 289.040727 160.489645 
L 291.475636 160.754648 
L 293.910545 160.791558 
L 296.345455 160.5985 
L 298.780364 160.185289 
L 301.519636 159.48384 
L 304.563273 158.464492 
L 308.824364 156.765918 
L 315.824727 153.937048 
L 318.868364 152.944862 
L 321.607636 152.275289 
L 324.042545 151.894622 
L 326.477455 151.736351 
L 326.781818 151.732732 
L 326.781818 151.732732 
" clip-path="url(#pb652c48174)" style="fill: none; stroke: #bc3f69; stroke-width: 2.25; stroke-linecap: square"/>
   </g>
   <g id="line2d_17">
    <path d="M 22.418182 138.53961 
L 24.548727 138.664142 
L 26.679273 139.000725 
L 29.114182 139.623852 
L 31.853455 140.58109 
L 35.201455 142.010522 
L 43.723636 145.79107 
L 46.462909 146.696227 
L 48.897818 147.261642 
L 51.028364 147.541851 
L 53.158909 147.607355 
L 55.289455 147.455004 
L 57.42 147.092123 
L 59.854909 146.442419 
L 62.594182 145.461688 
L 66.246545 143.875579 
L 73.551273 140.604923 
L 76.290545 139.642397 
L 78.725455 139.013321 
L 80.856 138.670869 
L 82.986545 138.540146 
L 85.117091 138.627435 
L 87.247636 138.928541 
L 89.682545 139.515462 
L 92.421818 140.440192 
L 95.769818 141.845245 
L 105.205091 145.991902 
L 107.944364 146.844748 
L 110.379273 147.35363 
L 112.509818 147.579511 
L 114.640364 147.588875 
L 116.770909 147.381273 
L 118.901455 146.966685 
L 121.336364 146.265404 
L 124.075636 145.240051 
L 128.032364 143.480609 
L 134.119636 140.749928 
L 136.858909 139.756482 
L 139.293818 139.092236 
L 141.424364 138.714869 
L 143.554909 138.547114 
L 145.685455 138.597037 
L 147.816 138.862237 
L 150.250909 139.412121 
L 152.685818 140.191725 
L 155.729455 141.413664 
L 161.208 143.93157 
L 165.164727 145.628843 
L 167.904 146.572699 
L 170.338909 147.180844 
L 172.469455 147.502701 
L 174.6 147.611733 
L 176.730545 147.502701 
L 178.861091 147.180844 
L 181.296 146.572699 
L 184.035273 145.628843 
L 187.383273 144.209325 
L 196.209818 140.303031 
L 198.949091 139.412121 
L 201.384 138.862237 
L 203.514545 138.597037 
L 205.645091 138.547114 
L 207.775636 138.714869 
L 209.906182 139.092236 
L 212.341091 139.756482 
L 215.080364 140.749928 
L 218.732727 142.34537 
L 226.037455 145.605258 
L 228.776727 146.554495 
L 231.211636 147.168651 
L 233.342182 147.496408 
L 235.472727 147.611644 
L 237.603273 147.508819 
L 239.733818 147.192876 
L 242.168727 146.590765 
L 244.908 145.652328 
L 248.256 144.236873 
L 257.082545 140.325623 
L 259.821818 139.428988 
L 262.256727 138.872875 
L 264.387273 138.601663 
L 266.517818 138.545506 
L 268.648364 138.707104 
L 270.778909 139.078688 
L 273.213818 139.737136 
L 275.953091 140.725526 
L 279.605455 142.317281 
L 286.910182 145.581573 
L 289.649455 146.536154 
L 292.084364 147.156297 
L 294.214909 147.489941 
L 296.345455 147.611376 
L 298.476 147.514762 
L 300.606545 147.204745 
L 303.041455 146.608692 
L 305.780727 145.67571 
L 309.128727 144.264375 
L 318.259636 140.235913 
L 320.998909 139.36239 
L 323.433818 138.831321 
L 325.564364 138.584217 
L 326.781818 138.53961 
L 326.781818 138.53961 
" clip-path="url(#pb652c48174)" style="fill: none; stroke: #c84365; stroke-width: 2.25; stroke-linecap: square"/>
   </g>
   <g id="line2d_18">
    <path d="M 22.418182 125.346498 
L 24.244364 125.459558 
L 26.374909 125.829644 
L 28.505455 126.435247 
L 30.940364 127.370052 
L 33.984 128.796546 
L 41.897455 132.648887 
L 44.332364 133.524329 
L 46.462909 134.065666 
L 48.593455 134.363873 
L 50.419636 134.412424 
L 52.245818 134.267292 
L 54.376364 133.861908 
L 56.506909 133.225235 
L 58.941818 132.262402 
L 62.289818 130.661321 
L 68.985818 127.370052 
L 71.420727 126.435247 
L 73.551273 125.829644 
L 75.681818 125.459558 
L 77.508 125.346498 
L 79.334182 125.427352 
L 81.464727 125.761697 
L 83.595273 126.335509 
L 86.030182 127.241172 
L 89.073818 128.645166 
L 97.596 132.771322 
L 100.030909 133.615499 
L 102.161455 134.123716 
L 104.292 134.38543 
L 106.118182 134.40162 
L 107.944364 134.224589 
L 110.074909 133.784389 
L 112.205455 133.117406 
L 114.640364 132.127692 
L 117.988364 130.506607 
L 124.075636 127.501925 
L 126.814909 126.435247 
L 128.945455 125.829644 
L 131.076 125.459558 
L 132.902182 125.346498 
L 134.728364 125.427352 
L 136.858909 125.761697 
L 138.989455 126.335509 
L 141.424364 127.241172 
L 144.468 128.645166 
L 152.990182 132.771322 
L 155.425091 133.615499 
L 157.555636 134.123716 
L 159.686182 134.38543 
L 161.512364 134.40162 
L 163.338545 134.224589 
L 165.469091 133.784389 
L 167.599636 133.117406 
L 170.034545 132.127692 
L 173.382545 130.506607 
L 179.469818 127.501925 
L 182.209091 126.435247 
L 184.339636 125.829644 
L 186.470182 125.459558 
L 188.296364 125.346498 
L 190.122545 125.427352 
L 192.253091 125.761697 
L 194.383636 126.335509 
L 196.818545 127.241172 
L 199.862182 128.645166 
L 208.384364 132.771322 
L 210.819273 133.615499 
L 212.949818 134.123716 
L 215.080364 134.38543 
L 216.906545 134.40162 
L 218.732727 134.224589 
L 220.863273 133.784389 
L 222.993818 133.117406 
L 225.428727 132.127692 
L 228.776727 130.506607 
L 234.864 127.501925 
L 237.603273 126.435247 
L 239.733818 125.829644 
L 241.864364 125.459558 
L 243.690545 125.346498 
L 245.516727 125.427352 
L 247.647273 125.761697 
L 249.777818 126.335509 
L 252.212727 127.241172 
L 255.256364 128.645166 
L 263.778545 132.771322 
L 266.213455 133.615499 
L 268.344 134.123716 
L 270.474545 134.38543 
L 272.300727 134.40162 
L 274.126909 134.224589 
L 276.257455 133.784389 
L 278.388 133.117406 
L 280.822909 132.127692 
L 284.170909 130.506607 
L 290.258182 127.501925 
L 292.997455 126.435247 
L 295.128 125.829644 
L 297.258545 125.459558 
L 299.084727 125.346498 
L 300.910909 125.427352 
L 303.041455 125.761697 
L 305.172 126.335509 
L 307.606909 127.241172 
L 310.650545 128.645166 
L 319.172727 132.771322 
L 321.607636 133.615499 
L 323.738182 134.123716 
L 325.868727 134.38543 
L 326.781818 134.417829 
L 326.781818 134.417829 
" clip-path="url(#pb652c48174)" style="fill: none; stroke: #d14a61; stroke-width: 2.25; stroke-linecap: square"/>
   </g>
   <g id="line2d_19">
    <path d="M 22.418182 112.153398 
L 24.244364 112.287841 
L 26.070545 112.646057 
L 28.201091 113.321908 
L 30.636 114.375707 
L 33.679636 115.972968 
L 39.766909 119.230606 
L 42.201818 120.231147 
L 44.332364 120.847248 
L 46.158545 121.147728 
L 47.984727 121.221501 
L 49.810909 121.064816 
L 51.637091 120.685639 
L 53.767636 119.988369 
L 56.202545 118.915883 
L 59.246182 117.306327 
L 65.029091 114.206537 
L 67.464 113.191629 
L 69.594545 112.559582 
L 71.420727 112.243797 
L 73.246909 112.154024 
L 75.073091 112.294829 
L 76.899273 112.659051 
L 79.029818 113.341056 
L 81.464727 114.400246 
L 84.508364 116.001099 
L 90.291273 119.111449 
L 92.726182 120.140475 
L 94.856727 120.788311 
L 96.682909 121.119324 
L 98.509091 121.225075 
L 100.335273 121.100186 
L 102.161455 120.751007 
L 104.292 120.084435 
L 106.422545 119.183237 
L 109.161818 117.781463 
L 116.466545 113.905319 
L 118.597091 113.0681 
L 120.727636 112.481078 
L 122.553818 112.208333 
L 124.38 112.163403 
L 126.206182 112.348574 
L 128.032364 112.75443 
L 130.162909 113.478742 
L 132.597818 114.574492 
L 135.945818 116.368867 
L 140.815636 118.989905 
L 143.250545 120.046405 
L 145.381091 120.725336 
L 147.207273 121.086557 
L 149.033455 121.224181 
L 150.859636 121.131211 
L 152.685818 120.812374 
L 154.512 120.28388 
L 156.642545 119.438704 
L 159.381818 118.082615 
L 167.904 113.622624 
L 170.034545 112.857403 
L 171.860727 112.410697 
L 173.686909 112.181518 
L 175.513091 112.181518 
L 177.339273 112.410697 
L 179.165455 112.857403 
L 181.296 113.622624 
L 183.730909 114.752819 
L 187.383273 116.738764 
L 191.644364 119.014399 
L 194.079273 120.065486 
L 196.209818 120.738251 
L 198.036 121.093458 
L 199.862182 121.224718 
L 201.688364 121.125355 
L 203.514545 120.800423 
L 205.340727 120.266443 
L 207.471273 119.416003 
L 210.210545 118.055491 
L 218.428364 113.729038 
L 220.558909 112.935496 
L 222.385091 112.460134 
L 224.211273 112.199786 
L 226.037455 112.167688 
L 227.863636 112.365473 
L 229.689818 112.783084 
L 231.820364 113.519231 
L 234.255273 114.625041 
L 237.603273 116.425697 
L 242.473091 119.038801 
L 244.908 120.084435 
L 247.038545 120.751007 
L 248.864727 121.100186 
L 250.690909 121.225075 
L 252.517091 121.119324 
L 254.343273 120.788311 
L 256.169455 120.248865 
L 258.3 119.393195 
L 261.039273 118.028312 
L 269.257091 113.707518 
L 271.387636 112.919579 
L 273.213818 112.449912 
L 275.04 112.195778 
L 276.866182 112.170098 
L 278.692364 112.374179 
L 280.518545 112.797643 
L 282.649091 113.539663 
L 285.084 114.650438 
L 288.432 116.454128 
L 293.301818 119.063111 
L 295.736727 120.10325 
L 297.867273 120.763602 
L 299.693455 121.106739 
L 301.519636 121.225254 
L 303.345818 121.113119 
L 305.172 120.776037 
L 306.998182 120.231147 
L 309.128727 119.370281 
L 311.868 118.001081 
L 320.085818 113.686117 
L 322.216364 112.903811 
L 324.042545 112.439857 
L 325.868727 112.191947 
L 326.781818 112.153398 
L 326.781818 112.153398 
" clip-path="url(#pb652c48174)" style="fill: none; stroke: #d9525e; stroke-width: 2.25; stroke-linecap: square"/>
   </g>
   <g id="line2d_20">
    <path d="M 22.418182 108.031104 
L 23.94 107.918312 
L 25.766182 107.541809 
L 27.592364 106.924044 
L 29.722909 105.948238 
L 32.462182 104.414713 
L 38.549455 100.889559 
L 40.68 99.949052 
L 42.506182 99.369306 
L 44.332364 99.035608 
L 45.854182 98.960309 
L 47.376 99.073101 
L 49.202182 99.449604 
L 51.028364 100.067369 
L 53.158909 101.043175 
L 55.898182 102.5767 
L 61.985455 106.101855 
L 64.116 107.042361 
L 65.942182 107.622107 
L 67.768364 107.955805 
L 69.290182 108.031104 
L 70.812 107.918312 
L 72.638182 107.541809 
L 74.464364 106.924044 
L 76.594909 105.948238 
L 79.334182 104.414713 
L 85.421455 100.889559 
L 87.552 99.949052 
L 89.378182 99.369306 
L 91.204364 99.035608 
L 92.726182 98.960309 
L 94.248 99.073101 
L 96.074182 99.449604 
L 97.900364 100.067369 
L 100.030909 101.043175 
L 102.770182 102.5767 
L 108.857455 106.101855 
L 110.988 107.042361 
L 112.814182 107.622107 
L 114.640364 107.955805 
L 116.162182 108.031104 
L 117.684 107.918312 
L 119.510182 107.541809 
L 121.336364 106.924044 
L 123.466909 105.948238 
L 126.206182 104.414713 
L 132.293455 100.889559 
L 134.424 99.949052 
L 136.250182 99.369306 
L 138.076364 99.035608 
L 139.598182 98.960309 
L 141.12 99.073101 
L 142.946182 99.449604 
L 144.772364 100.067369 
L 146.902909 101.043175 
L 149.642182 102.5767 
L 155.729455 106.101855 
L 157.86 107.042361 
L 159.686182 107.622107 
L 161.512364 107.955805 
L 163.034182 108.031104 
L 164.556 107.918312 
L 166.382182 107.541809 
L 168.208364 106.924044 
L 170.338909 105.948238 
L 173.078182 104.414713 
L 179.165455 100.889559 
L 181.296 99.949052 
L 183.122182 99.369306 
L 184.948364 99.035608 
L 186.470182 98.960309 
L 187.992 99.073101 
L 189.818182 99.449604 
L 191.644364 100.067369 
L 193.774909 101.043175 
L 196.514182 102.5767 
L 202.601455 106.101855 
L 204.732 107.042361 
L 206.558182 107.622107 
L 208.384364 107.955805 
L 209.906182 108.031104 
L 211.428 107.918312 
L 213.254182 107.541809 
L 215.080364 106.924044 
L 217.210909 105.948238 
L 219.950182 104.414713 
L 226.037455 100.889559 
L 228.168 99.949052 
L 229.994182 99.369306 
L 231.820364 99.035608 
L 233.342182 98.960309 
L 234.864 99.073101 
L 236.690182 99.449604 
L 238.516364 100.067369 
L 240.646909 101.043175 
L 243.386182 102.5767 
L 249.473455 106.101855 
L 251.604 107.042361 
L 253.430182 107.622107 
L 255.256364 107.955805 
L 256.778182 108.031104 
L 258.3 107.918312 
L 260.126182 107.541809 
L 261.952364 106.924044 
L 264.082909 105.948238 
L 266.822182 104.414713 
L 272.909455 100.889559 
L 275.04 99.949052 
L 276.866182 99.369306 
L 278.692364 99.035608 
L 280.214182 98.960309 
L 281.736 99.073101 
L 283.562182 99.449604 
L 285.388364 100.067369 
L 287.518909 101.043175 
L 290.258182 102.5767 
L 296.345455 106.101855 
L 298.476 107.042361 
L 300.302182 107.622107 
L 302.128364 107.955805 
L 303.650182 108.031104 
L 305.172 107.918312 
L 306.998182 107.541809 
L 308.824364 106.924044 
L 310.954909 105.948238 
L 313.694182 104.414713 
L 319.781455 100.889559 
L 321.912 99.949052 
L 323.738182 99.369306 
L 325.564364 99.035608 
L 326.781818 98.960309 
L 326.781818 98.960309 
" clip-path="url(#pb652c48174)" style="fill: none; stroke: #de5d5c; stroke-width: 2.25; stroke-linecap: square"/>
   </g>
   <g id="line2d_21">
    <path d="M 22.418182 94.837724 
L 23.94 94.707001 
L 25.461818 94.36455 
L 27.288 93.697978 
L 29.114182 92.79678 
L 31.549091 91.339649 
L 37.636364 87.564046 
L 39.462545 86.716234 
L 41.288727 86.116229 
L 42.810545 85.836019 
L 44.332364 85.770515 
L 45.854182 85.922866 
L 47.376 86.285748 
L 49.202182 86.973879 
L 51.332727 88.063137 
L 54.072 89.755683 
L 58.941818 92.79678 
L 61.072364 93.826832 
L 62.898545 94.44933 
L 64.420364 94.750435 
L 65.942182 94.837724 
L 67.464 94.707001 
L 68.985818 94.36455 
L 70.812 93.697978 
L 72.638182 92.79678 
L 75.073091 91.339649 
L 81.160364 87.564046 
L 82.986545 86.716234 
L 84.812727 86.116229 
L 86.334545 85.836019 
L 87.856364 85.770515 
L 89.378182 85.922866 
L 90.9 86.285748 
L 92.726182 86.973879 
L 94.856727 88.063137 
L 97.596 89.755683 
L 102.465818 92.79678 
L 104.596364 93.826832 
L 106.422545 94.44933 
L 107.944364 94.750435 
L 109.466182 94.837724 
L 110.988 94.707001 
L 112.509818 94.36455 
L 114.336 93.697978 
L 116.162182 92.79678 
L 118.597091 91.339649 
L 124.684364 87.564046 
L 126.510545 86.716234 
L 128.336727 86.116229 
L 129.858545 85.836019 
L 131.380364 85.770515 
L 132.902182 85.922866 
L 134.424 86.285748 
L 136.250182 86.973879 
L 138.380727 88.063137 
L 141.12 89.755683 
L 145.989818 92.79678 
L 148.120364 93.826832 
L 149.946545 94.44933 
L 151.468364 94.750435 
L 152.990182 94.837724 
L 154.512 94.707001 
L 156.033818 94.36455 
L 157.86 93.697978 
L 159.686182 92.79678 
L 162.121091 91.339649 
L 168.208364 87.564046 
L 170.034545 86.716234 
L 171.860727 86.116229 
L 173.382545 85.836019 
L 174.904364 85.770515 
L 176.426182 85.922866 
L 177.948 86.285748 
L 179.774182 86.973879 
L 181.904727 88.063137 
L 184.644 89.755683 
L 189.513818 92.79678 
L 191.644364 93.826832 
L 193.470545 94.44933 
L 194.992364 94.750435 
L 196.514182 94.837724 
L 198.036 94.707001 
L 199.557818 94.36455 
L 201.384 93.697978 
L 203.210182 92.79678 
L 205.645091 91.339649 
L 211.732364 87.564046 
L 213.558545 86.716234 
L 215.384727 86.116229 
L 216.906545 85.836019 
L 218.428364 85.770515 
L 219.950182 85.922866 
L 221.472 86.285748 
L 223.298182 86.973879 
L 225.428727 88.063137 
L 228.168 89.755683 
L 233.037818 92.79678 
L 235.168364 93.826832 
L 236.994545 94.44933 
L 238.516364 94.750435 
L 240.038182 94.837724 
L 241.56 94.707001 
L 243.081818 94.36455 
L 244.908 93.697978 
L 246.734182 92.79678 
L 249.169091 91.339649 
L 255.256364 87.564046 
L 257.082545 86.716234 
L 258.908727 86.116229 
L 260.430545 85.836019 
L 261.952364 85.770515 
L 263.474182 85.922866 
L 264.996 86.285748 
L 266.822182 86.973879 
L 268.952727 88.063137 
L 271.692 89.755683 
L 276.561818 92.79678 
L 278.692364 93.826832 
L 280.518545 94.44933 
L 282.040364 94.750435 
L 283.562182 94.837724 
L 285.084 94.707001 
L 286.605818 94.36455 
L 288.432 93.697978 
L 290.258182 92.79678 
L 292.693091 91.339649 
L 298.780364 87.564046 
L 300.606545 86.716234 
L 302.432727 86.116229 
L 303.954545 85.836019 
L 305.476364 85.770515 
L 306.998182 85.922866 
L 308.52 86.285748 
L 310.346182 86.973879 
L 312.476727 88.063137 
L 315.216 89.755683 
L 320.085818 92.79678 
L 322.216364 93.826832 
L 324.042545 94.44933 
L 325.564364 94.750435 
L 326.781818 94.837724 
L 326.781818 94.837724 
" clip-path="url(#pb652c48174)" style="fill: none; stroke: #e3685c; stroke-width: 2.25; stroke-linecap: square"/>
   </g>
   <g id="line2d_22">
    <path d="M 22.418182 81.644334 
L 23.94 81.494378 
L 25.461818 81.102581 
L 26.983636 80.490551 
L 28.809818 79.513681 
L 31.244727 77.930449 
L 36.418909 74.479847 
L 38.245091 73.553736 
L 39.766909 72.994758 
L 41.288727 72.662696 
L 42.810545 72.575863 
L 44.332364 72.739047 
L 45.854182 73.143249 
L 47.376 73.766178 
L 49.202182 74.753297 
L 51.637091 76.344121 
L 56.506909 79.609494 
L 58.333091 80.565405 
L 59.854909 81.155352 
L 61.376727 81.522155 
L 62.898545 81.645585 
L 64.420364 81.518835 
L 65.942182 81.148894 
L 67.464 80.556166 
L 69.290182 79.597602 
L 71.725091 78.028256 
L 76.899273 74.561685 
L 78.725455 73.616481 
L 80.247273 73.037716 
L 81.769091 72.683498 
L 83.290909 72.573361 
L 84.812727 72.71338 
L 86.334545 73.095832 
L 87.856364 73.699626 
L 89.682545 74.668707 
L 92.117455 76.246082 
L 97.291636 79.703732 
L 99.117818 80.638081 
L 100.639636 81.205572 
L 102.161455 81.54715 
L 103.683273 81.643976 
L 105.205091 81.490711 
L 106.726909 81.095807 
L 108.248727 80.481043 
L 110.074909 79.501596 
L 112.509818 77.916443 
L 117.379636 74.644754 
L 119.205818 73.680912 
L 120.727636 73.082639 
L 122.249455 72.706435 
L 123.771273 72.573048 
L 125.293091 72.689834 
L 126.814909 73.050352 
L 128.336727 73.634719 
L 130.162909 74.585295 
L 132.597818 76.148459 
L 138.076364 79.796334 
L 139.902545 80.708532 
L 141.424364 81.25321 
L 142.946182 81.569348 
L 144.468 81.639509 
L 145.989818 81.459826 
L 147.511636 81.040207 
L 149.033455 80.403794 
L 150.859636 79.404082 
L 153.294545 77.804121 
L 158.164364 74.549918 
L 159.990545 73.607414 
L 161.512364 73.031459 
L 163.034182 72.680395 
L 164.556 72.573584 
L 166.077818 72.716917 
L 167.599636 73.102488 
L 169.121455 73.709033 
L 170.947636 74.680721 
L 173.382545 76.260063 
L 178.556727 79.715398 
L 180.382909 80.64701 
L 181.904727 81.211669 
L 183.426545 81.550078 
L 184.948364 81.643574 
L 186.470182 81.487001 
L 187.992 81.088994 
L 189.513818 80.471502 
L 191.34 79.489488 
L 193.774909 77.902429 
L 198.644727 74.632813 
L 200.470909 73.671605 
L 201.992727 73.076102 
L 203.514545 72.703028 
L 205.036364 72.572959 
L 206.558182 72.693067 
L 208.08 73.05673 
L 209.601818 73.64389 
L 211.428 74.597138 
L 213.862909 76.162378 
L 219.341455 79.807791 
L 221.167636 80.71718 
L 222.689455 81.258982 
L 224.211273 81.571925 
L 225.733091 81.63875 
L 227.254909 81.455772 
L 228.776727 81.033082 
L 230.298545 80.393991 
L 232.124727 79.391789 
L 234.559636 77.790048 
L 239.125091 74.716903 
L 240.951273 73.737456 
L 242.473091 73.122692 
L 243.994909 72.727788 
L 245.516727 72.574523 
L 247.038545 72.671349 
L 248.560364 73.012927 
L 250.082182 73.580418 
L 251.908364 74.514767 
L 254.343273 76.06515 
L 259.821818 79.727038 
L 261.648 80.655904 
L 263.169818 81.217725 
L 264.691636 81.552962 
L 266.213455 81.643128 
L 267.735273 81.483248 
L 269.257091 81.082141 
L 270.778909 80.461928 
L 272.605091 79.477356 
L 275.04 77.888407 
L 279.909818 74.620897 
L 281.736 73.662333 
L 283.257818 73.069605 
L 284.779636 72.699664 
L 286.301455 72.572914 
L 287.823273 72.696344 
L 289.345091 73.063147 
L 290.866909 73.653094 
L 292.693091 74.609005 
L 295.128 76.176306 
L 300.302182 79.645021 
L 302.128364 80.592916 
L 303.650182 81.174485 
L 305.172 81.531855 
L 306.693818 81.645317 
L 308.215636 81.508613 
L 309.737455 81.129283 
L 311.259273 80.528247 
L 313.085455 79.561781 
L 315.520364 77.98639 
L 320.694545 74.526459 
L 322.520727 73.589382 
L 324.042545 73.019064 
L 325.564364 72.674321 
L 326.781818 72.574165 
L 326.781818 72.574165 
" clip-path="url(#pb652c48174)" style="fill: none; stroke: #e67560; stroke-width: 2.25; stroke-linecap: square"/>
   </g>
   <g id="line2d_23">
    <path d="M 22.418182 68.450932 
L 23.635636 68.337037 
L 25.157455 67.945905 
L 26.679273 67.302063 
L 28.505455 66.253697 
L 30.940364 64.547514 
L 35.201455 61.493508 
L 37.027636 60.464481 
L 38.549455 59.841354 
L 40.071273 59.473745 
L 41.288727 59.379702 
L 42.506182 59.468064 
L 44.028 59.828919 
L 45.549818 60.446072 
L 47.376 61.469481 
L 49.810909 63.15791 
L 54.376364 66.422202 
L 56.202545 67.431393 
L 57.724364 68.033505 
L 59.246182 68.377413 
L 60.463636 68.451558 
L 61.681091 68.343329 
L 63.202909 67.958899 
L 64.724727 67.320945 
L 66.550909 66.278053 
L 68.985818 64.575699 
L 73.246909 61.517629 
L 75.073091 60.483026 
L 76.594909 59.853949 
L 78.116727 59.479601 
L 79.334182 59.379881 
L 80.551636 59.462558 
L 82.073455 59.816645 
L 83.595273 60.427799 
L 85.421455 61.445552 
L 87.856364 63.129852 
L 92.421818 66.398419 
L 94.248 67.413327 
L 95.769818 68.021473 
L 97.291636 68.372171 
L 98.509091 68.452005 
L 99.726545 68.349448 
L 101.248364 67.971735 
L 102.770182 67.339693 
L 104.596364 66.302316 
L 107.031273 64.603857 
L 111.596727 61.350815 
L 113.422909 60.356091 
L 114.944727 59.769169 
L 116.466545 59.442292 
L 117.684 59.382383 
L 118.901455 59.50477 
L 120.423273 59.905927 
L 121.945091 60.558551 
L 123.771273 61.615051 
L 126.206182 63.32685 
L 130.467273 66.374538 
L 132.293455 67.395124 
L 133.815273 68.00928 
L 135.337091 68.366753 
L 136.554545 68.452273 
L 137.772 68.355391 
L 139.293818 67.98441 
L 140.815636 67.358306 
L 142.641818 66.326485 
L 145.076727 64.631988 
L 149.642182 61.37435 
L 151.468364 60.37381 
L 152.990182 59.780794 
L 154.512 59.447095 
L 155.729455 59.38149 
L 156.946909 59.498217 
L 158.468727 59.892694 
L 159.990545 60.53947 
L 161.816727 61.590557 
L 164.251636 63.298629 
L 168.512727 66.350559 
L 170.338909 67.376783 
L 171.860727 67.996926 
L 173.382545 68.36116 
L 174.6 68.452362 
L 175.817455 68.36116 
L 177.339273 67.996926 
L 178.861091 67.376783 
L 180.687273 66.350559 
L 183.122182 64.660091 
L 187.687636 61.397985 
L 189.513818 60.391667 
L 191.035636 59.792582 
L 192.557455 59.452073 
L 193.774909 59.380775 
L 194.992364 59.491837 
L 196.514182 59.87962 
L 198.036 60.520521 
L 199.862182 61.566155 
L 202.297091 63.270432 
L 206.558182 66.326485 
L 208.384364 67.358306 
L 209.906182 67.98441 
L 211.428 68.355391 
L 212.645455 68.452273 
L 213.862909 68.366753 
L 215.384727 68.00928 
L 216.906545 67.395124 
L 218.732727 66.374538 
L 221.167636 64.688165 
L 225.733091 61.421719 
L 227.559273 60.409664 
L 229.081091 59.804533 
L 230.602909 59.457228 
L 231.820364 59.380239 
L 233.037818 59.485632 
L 234.559636 59.866705 
L 236.081455 60.501706 
L 237.907636 61.541845 
L 240.342545 63.242261 
L 244.603636 66.302316 
L 246.429818 67.339693 
L 247.951636 67.971735 
L 249.473455 68.349448 
L 250.690909 68.452005 
L 251.908364 68.372171 
L 253.430182 68.021473 
L 254.952 67.413327 
L 256.778182 66.398419 
L 258.908727 64.939327 
L 264.082909 61.257696 
L 265.909091 60.286627 
L 267.430909 59.724308 
L 268.952727 59.424846 
L 270.170182 59.387743 
L 271.387636 59.53272 
L 272.909455 59.960432 
L 274.431273 60.636193 
L 276.257455 61.713924 
L 278.692364 63.439956 
L 282.649091 66.278053 
L 284.475273 67.320945 
L 285.997091 67.958899 
L 287.518909 68.343329 
L 288.736364 68.451558 
L 289.953818 68.377413 
L 291.475636 68.033505 
L 292.997455 67.431393 
L 294.823636 66.422202 
L 296.954182 64.967047 
L 302.128364 61.280821 
L 303.954545 60.30378 
L 305.476364 59.735276 
L 306.998182 59.428942 
L 308.215636 59.386135 
L 309.433091 59.525473 
L 310.954909 59.94657 
L 312.476727 60.616587 
L 314.302909 61.689073 
L 316.737818 63.411649 
L 320.694545 66.253697 
L 322.520727 67.302063 
L 324.042545 67.945905 
L 325.564364 68.337037 
L 326.781818 68.450932 
L 326.781818 68.450932 
" clip-path="url(#pb652c48174)" style="fill: none; stroke: #e88165; stroke-width: 2.25; stroke-linecap: square"/>
   </g>
   <g id="line2d_24">
    <path d="M 22.418182 46.188066 
L 23.635636 46.316571 
L 24.853091 46.645002 
L 26.374909 47.313169 
L 27.896727 48.222548 
L 30.027273 49.775921 
L 34.897091 53.444169 
L 36.418909 54.304673 
L 37.940727 54.911779 
L 39.158182 55.185468 
L 40.375636 55.256671 
L 41.593091 55.122156 
L 42.810545 54.788028 
L 44.332364 54.113568 
L 45.854182 53.199229 
L 47.984727 51.641799 
L 52.550182 48.175228 
L 54.376364 47.12351 
L 55.898182 46.522961 
L 57.115636 46.255094 
L 58.333091 46.189942 
L 59.550545 46.33046 
L 60.768 46.670273 
L 62.289818 47.350999 
L 64.116 48.477264 
L 66.550909 50.310486 
L 70.203273 53.090899 
L 72.029455 54.188152 
L 73.551273 54.837284 
L 74.768727 55.148544 
L 75.986182 55.258994 
L 77.203636 55.163621 
L 78.421091 54.866753 
L 79.942909 54.233661 
L 81.464727 53.352195 
L 83.595273 51.822228 
L 88.769455 47.933559 
L 90.291273 47.089133 
L 91.813091 46.501768 
L 93.030545 46.245577 
L 94.248 46.192533 
L 95.465455 46.345041 
L 96.682909 46.696182 
L 98.204727 47.389361 
L 100.030909 48.526921 
L 102.465818 50.36723 
L 106.118182 53.139284 
L 107.944364 54.224628 
L 109.466182 54.860941 
L 110.683636 55.160693 
L 111.901091 55.259083 
L 113.118545 55.151647 
L 114.336 54.843259 
L 115.857818 54.197323 
L 117.379636 53.305583 
L 119.510182 51.766892 
L 124.38 48.081801 
L 126.206182 47.055328 
L 127.728 46.48124 
L 128.945455 46.236766 
L 130.162909 46.195837 
L 131.380364 46.360312 
L 132.597818 46.722726 
L 134.119636 47.428248 
L 135.945818 48.576925 
L 138.380727 50.42403 
L 142.033091 53.187288 
L 143.859273 54.260553 
L 145.381091 54.883946 
L 146.598545 55.172142 
L 147.816 55.258458 
L 149.033455 55.138975 
L 150.250909 54.819115 
L 151.772727 54.160437 
L 153.294545 53.258564 
L 155.425091 51.711392 
L 160.294909 48.035708 
L 161.816727 47.167279 
L 163.338545 46.550383 
L 164.556 46.267981 
L 165.773455 46.187708 
L 166.990909 46.313207 
L 168.208364 46.638784 
L 169.730182 47.303795 
L 171.252 48.210681 
L 173.382545 49.762002 
L 178.252364 53.432765 
L 179.774182 54.295919 
L 181.296 54.906295 
L 182.513455 55.182891 
L 183.730909 55.257117 
L 184.948364 55.125607 
L 186.165818 54.794326 
L 187.687636 54.123009 
L 189.209455 53.211145 
L 191.34 51.655736 
L 195.905455 48.187021 
L 197.731636 47.132193 
L 199.253455 46.528363 
L 200.470909 46.257584 
L 201.688364 46.189406 
L 202.905818 46.326923 
L 204.123273 46.663895 
L 205.645091 47.341491 
L 207.166909 48.258296 
L 209.297455 49.817733 
L 213.862909 53.282124 
L 215.689091 54.330723 
L 217.210909 54.927984 
L 218.428364 55.192936 
L 219.645818 55.255062 
L 220.863273 55.111545 
L 222.080727 54.768895 
L 223.602545 54.085045 
L 225.428727 52.95594 
L 227.863636 51.120918 
L 231.516 48.342554 
L 233.342182 47.248262 
L 234.864 46.602326 
L 236.081455 46.293938 
L 237.298909 46.186502 
L 238.516364 46.284892 
L 239.733818 46.584644 
L 241.255636 47.220957 
L 242.777455 48.105004 
L 244.908 49.637175 
L 250.082182 53.523241 
L 251.604 54.364957 
L 253.125818 54.949012 
L 254.343273 55.202277 
L 255.560727 55.252293 
L 256.778182 55.096791 
L 257.995636 54.742826 
L 259.517455 54.046551 
L 261.343636 52.906195 
L 263.778545 51.06416 
L 267.430909 48.294264 
L 269.257091 47.211924 
L 270.778909 46.578832 
L 271.996364 46.281964 
L 273.213818 46.186591 
L 274.431273 46.297041 
L 275.648727 46.608301 
L 277.170545 47.257433 
L 278.692364 48.151719 
L 280.822909 49.692553 
L 285.692727 53.375346 
L 287.214545 54.251624 
L 288.736364 54.878256 
L 289.953818 55.169346 
L 291.171273 55.258681 
L 292.388727 55.142208 
L 293.606182 54.825212 
L 295.128 54.169709 
L 296.649818 53.270357 
L 298.780364 51.725282 
L 303.650182 48.047192 
L 305.172 47.176138 
L 306.693818 46.555991 
L 307.911273 46.27069 
L 309.128727 46.187395 
L 310.346182 46.309887 
L 311.563636 46.632607 
L 313.085455 47.294455 
L 314.607273 48.198838 
L 316.737818 49.748093 
L 321.607636 53.421334 
L 323.129455 54.28713 
L 324.651273 54.900769 
L 325.868727 55.180269 
L 326.781818 55.257519 
L 326.781818 55.257519 
" clip-path="url(#pb652c48174)" style="fill: none; stroke: #e98d6b; stroke-width: 2.25; stroke-linecap: square"/>
   </g>
   <g id="line2d_25">
    <path d="M 22.418182 32.995032 
L 23.635636 33.139016 
L 24.853091 33.506237 
L 26.374909 34.249736 
L 27.896727 35.253179 
L 30.027273 36.940393 
L 33.679636 39.891596 
L 35.201455 40.877443 
L 36.723273 41.597953 
L 37.940727 41.944113 
L 39.158182 42.065816 
L 40.375636 41.956872 
L 41.593091 41.622823 
L 42.810545 41.080652 
L 44.332364 40.153163 
L 46.158545 38.773409 
L 51.332727 34.667934 
L 52.854545 33.800277 
L 54.072 33.316409 
L 55.289455 33.046759 
L 56.506909 33.005036 
L 57.724364 33.193363 
L 58.941818 33.602164 
L 60.463636 34.390554 
L 62.289818 35.65806 
L 65.333455 38.161057 
L 67.768364 40.05943 
L 69.290182 41.008667 
L 70.812 41.682167 
L 72.029455 41.985714 
L 73.246909 42.062688 
L 74.464364 41.909176 
L 75.681818 41.532983 
L 77.203636 40.77974 
L 78.725455 39.768905 
L 81.160364 37.821223 
L 84.508364 35.131172 
L 86.030182 34.153013 
L 87.552 33.442462 
L 88.769455 33.10538 
L 89.986909 32.993245 
L 91.204364 33.11176 
L 92.421818 33.454897 
L 93.639273 34.00521 
L 95.161091 34.940924 
L 97.291636 36.575732 
L 101.857091 40.22238 
L 103.378909 41.133175 
L 104.596364 41.658917 
L 105.813818 41.974702 
L 107.031273 42.064475 
L 108.248727 41.923671 
L 109.466182 41.559448 
L 110.683636 40.990326 
L 112.205455 40.035745 
L 114.336 38.385742 
L 118.597091 34.964358 
L 120.118909 34.023207 
L 121.640727 33.359953 
L 122.858182 33.065616 
L 124.075636 32.998249 
L 125.293091 33.161276 
L 126.510545 33.546408 
L 128.032364 34.309327 
L 129.554182 35.327466 
L 131.989091 37.28054 
L 135.337091 39.964102 
L 136.858909 40.934488 
L 138.380727 41.635016 
L 139.598182 41.962991 
L 140.815636 42.065547 
L 142.033091 41.937473 
L 143.250545 41.585278 
L 144.468 41.02687 
L 145.989818 40.083015 
L 148.120364 38.441598 
L 152.381455 35.011528 
L 153.903273 34.059615 
L 155.425091 33.382712 
L 156.642545 33.076101 
L 157.86 32.995926 
L 159.077455 33.146263 
L 160.294909 33.51947 
L 161.816727 34.269472 
L 163.338545 35.277853 
L 165.773455 37.223699 
L 169.121455 39.915859 
L 170.643273 40.896591 
L 172.165091 41.610469 
L 173.382545 41.95058 
L 174.6 42.065905 
L 175.817455 41.95058 
L 177.034909 41.610469 
L 178.252364 41.062864 
L 179.774182 40.129882 
L 181.904727 38.49731 
L 186.470182 34.848218 
L 187.992 33.934619 
L 189.513818 33.305937 
L 190.731273 33.042485 
L 191.948727 33.007179 
L 193.166182 33.201813 
L 194.383636 33.616492 
L 195.905455 34.411172 
L 197.731636 35.684034 
L 200.775273 38.189242 
L 203.210182 40.083015 
L 204.732 41.02687 
L 206.253818 41.693547 
L 207.471273 41.990956 
L 208.688727 42.061527 
L 209.906182 41.90167 
L 211.123636 41.519513 
L 212.645455 40.759812 
L 214.167273 39.744098 
L 216.602182 37.792802 
L 219.950182 35.107051 
L 221.472 34.134064 
L 222.993818 33.430188 
L 224.211273 33.099175 
L 225.428727 32.993424 
L 226.646182 33.118313 
L 227.863636 33.467492 
L 229.081091 34.023207 
L 230.602909 34.964358 
L 232.733455 36.603588 
L 237.298909 40.245242 
L 238.820727 41.150399 
L 240.038182 41.670623 
L 241.255636 41.980296 
L 242.473091 42.063671 
L 243.690545 41.91651 
L 244.908 41.546294 
L 246.429818 40.79954 
L 247.951636 39.793623 
L 250.082182 38.104615 
L 253.734545 35.155388 
L 255.256364 34.172094 
L 256.778182 33.454897 
L 257.995636 33.11176 
L 259.213091 32.993245 
L 260.430545 33.10538 
L 261.648 33.442462 
L 262.865455 33.987352 
L 264.387273 34.917593 
L 266.517818 36.547913 
L 271.083273 40.199412 
L 272.605091 41.115808 
L 274.126909 41.747976 
L 275.344364 42.014528 
L 276.561818 42.053042 
L 277.779273 41.861561 
L 278.996727 41.449819 
L 280.518545 40.65828 
L 282.344727 39.38809 
L 285.388364 36.883975 
L 287.823273 34.987893 
L 289.345091 34.041342 
L 290.866909 33.371251 
L 292.084364 33.070771 
L 293.301818 32.996998 
L 294.519273 33.153683 
L 295.736727 33.53286 
L 297.258545 34.289336 
L 298.780364 35.302616 
L 301.215273 37.252114 
L 304.563273 39.940028 
L 306.085091 40.915606 
L 307.606909 41.622823 
L 308.824364 41.956872 
L 310.041818 42.065816 
L 311.259273 41.944113 
L 312.476727 41.597953 
L 313.694182 41.044936 
L 315.216 40.106499 
L 317.346545 38.469473 
L 321.912 34.825304 
L 323.433818 33.917323 
L 324.651273 33.394337 
L 325.868727 33.081607 
L 326.781818 32.995032 
L 326.781818 32.995032 
" clip-path="url(#pb652c48174)" style="fill: none; stroke: #eb9972; stroke-width: 2.25; stroke-linecap: square"/>
   </g>
   <g id="line2d_26">
    <path d="M 22.418182 28.87066 
L 23.635636 28.710334 
L 24.853091 28.302335 
L 26.070545 27.669767 
L 27.592364 26.618875 
L 29.722909 24.833632 
L 33.070909 21.980383 
L 34.592727 20.94556 
L 35.810182 20.329574 
L 37.027636 19.940466 
L 38.245091 19.800268 
L 39.462545 19.91692 
L 40.68 20.283815 
L 41.897455 20.88018 
L 43.419273 21.895793 
L 45.549818 23.655537 
L 49.202182 26.764864 
L 50.724 27.783252 
L 51.941455 28.382438 
L 53.158909 28.752518 
L 54.376364 28.872537 
L 55.593818 28.735699 
L 56.811273 28.349753 
L 58.028727 27.736552 
L 59.550545 26.704442 
L 61.681091 24.932563 
L 65.333455 21.836091 
L 66.855273 20.834499 
L 68.072727 20.252327 
L 69.290182 19.901407 
L 70.507636 19.801608 
L 71.725091 19.958584 
L 72.942545 20.363444 
L 74.16 20.993264 
L 75.681818 22.041503 
L 77.812364 23.82489 
L 81.160364 26.680109 
L 82.682182 27.717636 
L 83.899636 28.336402 
L 85.117091 28.728668 
L 86.334545 28.872224 
L 87.552 28.758941 
L 88.769455 28.395233 
L 89.986909 27.801695 
L 91.508727 26.788867 
L 93.639273 25.031207 
L 97.291636 21.919844 
L 98.813455 20.898691 
L 100.030909 20.296691 
L 101.248364 19.92343 
L 102.465818 19.800045 
L 103.683273 19.933521 
L 104.900727 20.316302 
L 106.118182 20.926712 
L 107.64 21.956097 
L 109.770545 23.725997 
L 113.422909 26.824688 
L 114.944727 27.829104 
L 116.162182 28.414126 
L 117.379636 28.768249 
L 118.597091 28.87142 
L 119.814545 28.717797 
L 121.032 28.31608 
L 122.249455 27.689014 
L 123.771273 26.643437 
L 125.901818 24.861925 
L 129.249818 22.004762 
L 130.771636 20.964542 
L 131.989091 20.343004 
L 133.206545 19.947583 
L 134.424 19.80067 
L 135.641455 19.910584 
L 136.858909 20.2711 
L 138.076364 20.861805 
L 139.598182 21.871839 
L 141.728727 23.627398 
L 145.381091 26.740766 
L 146.902909 27.764673 
L 148.120364 28.369483 
L 149.337818 28.74592 
L 150.555273 28.872671 
L 151.772727 28.742557 
L 152.990182 28.362946 
L 154.207636 27.755333 
L 155.729455 26.728682 
L 157.86 24.960779 
L 161.512364 21.859899 
L 163.034182 20.852669 
L 164.251636 20.264802 
L 165.469091 19.907481 
L 166.686545 19.800938 
L 167.904 19.951207 
L 169.121455 20.349778 
L 170.338909 20.974083 
L 171.860727 22.016987 
L 173.991273 23.796607 
L 177.643636 26.8839 
L 179.165455 27.874095 
L 180.382909 28.444811 
L 181.600364 28.782889 
L 182.817818 28.869186 
L 184.035273 28.698816 
L 185.252727 28.281426 
L 186.470182 27.640651 
L 187.992 26.581864 
L 190.122545 24.791157 
L 193.470545 21.943989 
L 194.992364 20.917338 
L 196.209818 20.309725 
L 197.427273 19.930114 
L 198.644727 19.8 
L 199.862182 19.92675 
L 201.079636 20.303188 
L 202.297091 20.907998 
L 203.818909 21.931904 
L 205.949455 23.697794 
L 209.601818 26.800831 
L 211.123636 27.810866 
L 212.341091 28.401571 
L 213.558545 28.762087 
L 214.776 28.872001 
L 215.993455 28.725088 
L 217.210909 28.329667 
L 218.428364 27.708129 
L 219.950182 26.667908 
L 222.080727 24.890197 
L 225.733091 21.800564 
L 227.254909 20.807504 
L 228.472364 20.233916 
L 229.689818 19.892623 
L 230.907273 19.802949 
L 232.124727 19.969972 
L 233.342182 20.384236 
L 234.559636 21.022282 
L 236.081455 22.078447 
L 238.212 23.867351 
L 241.56 26.716574 
L 243.081818 27.745959 
L 244.299273 28.356369 
L 245.516727 28.73915 
L 246.734182 28.872626 
L 247.951636 28.749241 
L 249.169091 28.37598 
L 250.386545 27.77398 
L 251.908364 26.752827 
L 254.038909 24.988969 
L 257.691273 21.883804 
L 259.213091 20.870975 
L 260.430545 20.277438 
L 261.648 19.91373 
L 262.865455 19.800447 
L 264.082909 19.944003 
L 265.300364 20.336269 
L 266.517818 20.955034 
L 268.039636 21.992561 
L 270.170182 23.768346 
L 273.822545 26.860289 
L 275.344364 27.856203 
L 276.561818 28.432658 
L 277.779273 28.777164 
L 278.996727 28.870213 
L 280.214182 28.706538 
L 281.431636 28.295405 
L 282.649091 27.660094 
L 284.170909 26.606561 
L 286.301455 24.819479 
L 289.649455 21.968228 
L 291.171273 20.936119 
L 292.388727 20.322918 
L 293.606182 19.936972 
L 294.823636 19.800134 
L 296.041091 19.920153 
L 297.258545 20.290233 
L 298.476 20.889419 
L 299.997818 21.907806 
L 302.128364 23.669616 
L 305.780727 26.776877 
L 307.302545 27.792491 
L 308.52 28.388855 
L 309.737455 28.755751 
L 310.954909 28.872403 
L 312.172364 28.732205 
L 313.389818 28.343097 
L 314.607273 27.727111 
L 316.129091 26.692288 
L 318.259636 24.918447 
L 321.912 21.824224 
L 323.433818 20.825466 
L 324.651273 20.24615 
L 325.868727 19.898435 
L 326.781818 19.802011 
L 326.781818 19.802011 
" clip-path="url(#pb652c48174)" style="fill: none; stroke: #eca479; stroke-width: 2.25; stroke-linecap: square"/>
   </g>
   <g id="patch_3">
    <path d="M 7.2 284.4 
L 342 284.4 
" style="fill: none; stroke: #000000; stroke-width: 1.875; stroke-linejoin: miter; stroke-linecap: square"/>
   </g>
  </g>
 </g>
 <defs>
  <clipPath id="pb652c48174">
   <rect x="7.2" y="7.2" width="334.8" height="277.2"/>
  </clipPath>
 </defs>
</svg>
