<?xml version="1.0" encoding="utf-8" standalone="no"?>
<!DOCTYPE svg PUBLIC "-//W3C//DTD SVG 1.1//EN"
  "http://www.w3.org/Graphics/SVG/1.1/DTD/svg11.dtd">
<svg xmlns:xlink="http://www.w3.org/1999/xlink" width="348.316875pt" height="341.489531pt" viewBox="0 0 348.316875 341.489531" xmlns="http://www.w3.org/2000/svg" version="1.1">
 <metadata>
  <rdf:RDF xmlns:dc="http://purl.org/dc/elements/1.1/" xmlns:cc="http://creativecommons.org/ns#" xmlns:rdf="http://www.w3.org/1999/02/22-rdf-syntax-ns#">
   <cc:Work>
    <dc:type rdf:resource="http://purl.org/dc/dcmitype/StillImage"/>
    <dc:date>2024-11-05T10:29:49.401267</dc:date>
    <dc:format>image/svg+xml</dc:format>
    <dc:creator>
     <cc:Agent>
      <dc:title>Matplotlib v3.9.2, https://matplotlib.org/</dc:title>
     </cc:Agent>
    </dc:creator>
   </cc:Work>
  </rdf:RDF>
 </metadata>
 <defs>
  <style type="text/css">*{stroke-linejoin: round; stroke-linecap: butt}</style>
 </defs>
 <g id="figure_1">
  <g id="patch_1">
   <path d="M 0 341.489531 
L 348.316875 341.489531 
L 348.316875 0 
L 0 0 
z
" style="fill: #ffffff"/>
  </g>
  <g id="axes_1">
   <g id="patch_2">
    <path d="M 62.116875 284.4 
L 294.616875 284.4 
L 294.616875 7.2 
L 62.116875 7.2 
z
" style="fill: #ffffff"/>
   </g>
   <g id="PathCollection_1">
    <defs>
     <path id="me4a49665ce" d="M 0 1.936492 
C 0.513564 1.936492 1.006162 1.732451 1.369306 1.369306 
C 1.732451 1.006162 1.936492 0.513564 1.936492 0 
C 1.936492 -0.513564 1.732451 -1.006162 1.369306 -1.369306 
C 1.006162 -1.732451 0.513564 -1.936492 0 -1.936492 
C -0.513564 -1.936492 -1.006162 -1.732451 -1.369306 -1.369306 
C -1.732451 -1.006162 -1.936492 -0.513564 -1.936492 0 
C -1.936492 0.513564 -1.732451 1.006162 -1.369306 1.369306 
C -1.006162 1.732451 -0.513564 1.936492 0 1.936492 
z
" style="stroke: #ffffff; stroke-opacity: 0.8; stroke-width: 0.309839"/>
    </defs>
    <g clip-path="url(#p343322580e)">
     <use xlink:href="#me4a49665ce" x="142.761537" y="208.924129" style="fill: #1f77b4; fill-opacity: 0.8; stroke: #ffffff; stroke-opacity: 0.8; stroke-width: 0.309839"/>
     <use xlink:href="#me4a49665ce" x="88.005204" y="251.842724" style="fill: #1f77b4; fill-opacity: 0.8; stroke: #ffffff; stroke-opacity: 0.8; stroke-width: 0.309839"/>
     <use xlink:href="#me4a49665ce" x="103.422319" y="241.42994" style="fill: #1f77b4; fill-opacity: 0.8; stroke: #ffffff; stroke-opacity: 0.8; stroke-width: 0.309839"/>
     <use xlink:href="#me4a49665ce" x="100.847669" y="249.553758" style="fill: #1f77b4; fill-opacity: 0.8; stroke: #ffffff; stroke-opacity: 0.8; stroke-width: 0.309839"/>
     <use xlink:href="#me4a49665ce" x="101.428541" y="243.685036" style="fill: #1f77b4; fill-opacity: 0.8; stroke: #ffffff; stroke-opacity: 0.8; stroke-width: 0.309839"/>
     <use xlink:href="#me4a49665ce" x="235.324782" y="137.574953" style="fill: #1f77b4; fill-opacity: 0.8; stroke: #ffffff; stroke-opacity: 0.8; stroke-width: 0.309839"/>
     <use xlink:href="#me4a49665ce" x="109.029854" y="236.518447" style="fill: #1f77b4; fill-opacity: 0.8; stroke: #ffffff; stroke-opacity: 0.8; stroke-width: 0.309839"/>
     <use xlink:href="#me4a49665ce" x="220.353959" y="149.451791" style="fill: #1f77b4; fill-opacity: 0.8; stroke: #ffffff; stroke-opacity: 0.8; stroke-width: 0.309839"/>
     <use xlink:href="#me4a49665ce" x="109.541475" y="230.588678" style="fill: #1f77b4; fill-opacity: 0.8; stroke: #ffffff; stroke-opacity: 0.8; stroke-width: 0.309839"/>
     <use xlink:href="#me4a49665ce" x="114.176084" y="233.087357" style="fill: #1f77b4; fill-opacity: 0.8; stroke: #ffffff; stroke-opacity: 0.8; stroke-width: 0.309839"/>
     <use xlink:href="#me4a49665ce" x="138.045139" y="215.712378" style="fill: #1f77b4; fill-opacity: 0.8; stroke: #ffffff; stroke-opacity: 0.8; stroke-width: 0.309839"/>
     <use xlink:href="#me4a49665ce" x="148.397982" y="203.338285" style="fill: #1f77b4; fill-opacity: 0.8; stroke: #ffffff; stroke-opacity: 0.8; stroke-width: 0.309839"/>
     <use xlink:href="#me4a49665ce" x="72.685057" y="270.339733" style="fill: #1f77b4; fill-opacity: 0.8; stroke: #ffffff; stroke-opacity: 0.8; stroke-width: 0.309839"/>
     <use xlink:href="#me4a49665ce" x="100.719487" y="242.442628" style="fill: #1f77b4; fill-opacity: 0.8; stroke: #ffffff; stroke-opacity: 0.8; stroke-width: 0.309839"/>
     <use xlink:href="#me4a49665ce" x="96.806553" y="236.679333" style="fill: #1f77b4; fill-opacity: 0.8; stroke: #ffffff; stroke-opacity: 0.8; stroke-width: 0.309839"/>
     <use xlink:href="#me4a49665ce" x="99.353828" y="250.521715" style="fill: #1f77b4; fill-opacity: 0.8; stroke: #ffffff; stroke-opacity: 0.8; stroke-width: 0.309839"/>
     <use xlink:href="#me4a49665ce" x="125.790198" y="220.970607" style="fill: #1f77b4; fill-opacity: 0.8; stroke: #ffffff; stroke-opacity: 0.8; stroke-width: 0.309839"/>
     <use xlink:href="#me4a49665ce" x="105.713229" y="239.189142" style="fill: #1f77b4; fill-opacity: 0.8; stroke: #ffffff; stroke-opacity: 0.8; stroke-width: 0.309839"/>
     <use xlink:href="#me4a49665ce" x="119.328285" y="227.950269" style="fill: #1f77b4; fill-opacity: 0.8; stroke: #ffffff; stroke-opacity: 0.8; stroke-width: 0.309839"/>
     <use xlink:href="#me4a49665ce" x="93.045341" y="249.339207" style="fill: #1f77b4; fill-opacity: 0.8; stroke: #ffffff; stroke-opacity: 0.8; stroke-width: 0.309839"/>
     <use xlink:href="#me4a49665ce" x="88.121276" y="251.706511" style="fill: #1f77b4; fill-opacity: 0.8; stroke: #ffffff; stroke-opacity: 0.8; stroke-width: 0.309839"/>
     <use xlink:href="#me4a49665ce" x="115.198474" y="225.01318" style="fill: #1f77b4; fill-opacity: 0.8; stroke: #ffffff; stroke-opacity: 0.8; stroke-width: 0.309839"/>
     <use xlink:href="#me4a49665ce" x="98.842121" y="242.513711" style="fill: #1f77b4; fill-opacity: 0.8; stroke: #ffffff; stroke-opacity: 0.8; stroke-width: 0.309839"/>
     <use xlink:href="#me4a49665ce" x="116.21856" y="230.365636" style="fill: #1f77b4; fill-opacity: 0.8; stroke: #ffffff; stroke-opacity: 0.8; stroke-width: 0.309839"/>
     <use xlink:href="#me4a49665ce" x="85.407527" y="259.904285" style="fill: #1f77b4; fill-opacity: 0.8; stroke: #ffffff; stroke-opacity: 0.8; stroke-width: 0.309839"/>
     <use xlink:href="#me4a49665ce" x="97.302908" y="249.690009" style="fill: #1f77b4; fill-opacity: 0.8; stroke: #ffffff; stroke-opacity: 0.8; stroke-width: 0.309839"/>
     <use xlink:href="#me4a49665ce" x="112.024189" y="234.541486" style="fill: #1f77b4; fill-opacity: 0.8; stroke: #ffffff; stroke-opacity: 0.8; stroke-width: 0.309839"/>
     <use xlink:href="#me4a49665ce" x="168.490559" y="180.002337" style="fill: #1f77b4; fill-opacity: 0.8; stroke: #ffffff; stroke-opacity: 0.8; stroke-width: 0.309839"/>
     <use xlink:href="#me4a49665ce" x="117.462007" y="229.527182" style="fill: #1f77b4; fill-opacity: 0.8; stroke: #ffffff; stroke-opacity: 0.8; stroke-width: 0.309839"/>
     <use xlink:href="#me4a49665ce" x="101.451482" y="244.233912" style="fill: #1f77b4; fill-opacity: 0.8; stroke: #ffffff; stroke-opacity: 0.8; stroke-width: 0.309839"/>
     <use xlink:href="#me4a49665ce" x="159.430456" y="186.984666" style="fill: #1f77b4; fill-opacity: 0.8; stroke: #ffffff; stroke-opacity: 0.8; stroke-width: 0.309839"/>
     <use xlink:href="#me4a49665ce" x="119.006848" y="226.247375" style="fill: #1f77b4; fill-opacity: 0.8; stroke: #ffffff; stroke-opacity: 0.8; stroke-width: 0.309839"/>
     <use xlink:href="#me4a49665ce" x="123.189195" y="222.591527" style="fill: #1f77b4; fill-opacity: 0.8; stroke: #ffffff; stroke-opacity: 0.8; stroke-width: 0.309839"/>
     <use xlink:href="#me4a49665ce" x="118.190762" y="229.67175" style="fill: #1f77b4; fill-opacity: 0.8; stroke: #ffffff; stroke-opacity: 0.8; stroke-width: 0.309839"/>
     <use xlink:href="#me4a49665ce" x="105.085024" y="236.873531" style="fill: #1f77b4; fill-opacity: 0.8; stroke: #ffffff; stroke-opacity: 0.8; stroke-width: 0.309839"/>
     <use xlink:href="#me4a49665ce" x="92.22934" y="250.471343" style="fill: #1f77b4; fill-opacity: 0.8; stroke: #ffffff; stroke-opacity: 0.8; stroke-width: 0.309839"/>
     <use xlink:href="#me4a49665ce" x="108.580746" y="239.589224" style="fill: #1f77b4; fill-opacity: 0.8; stroke: #ffffff; stroke-opacity: 0.8; stroke-width: 0.309839"/>
     <use xlink:href="#me4a49665ce" x="259.886857" y="121.530524" style="fill: #1f77b4; fill-opacity: 0.8; stroke: #ffffff; stroke-opacity: 0.8; stroke-width: 0.309839"/>
     <use xlink:href="#me4a49665ce" x="79.507041" y="265.163211" style="fill: #1f77b4; fill-opacity: 0.8; stroke: #ffffff; stroke-opacity: 0.8; stroke-width: 0.309839"/>
     <use xlink:href="#me4a49665ce" x="284.048693" y="77.649416" style="fill: #1f77b4; fill-opacity: 0.8; stroke: #ffffff; stroke-opacity: 0.8; stroke-width: 0.309839"/>
    </g>
   </g>
   <g id="matplotlib.axis_1">
    <g id="xtick_1">
     <g id="line2d_1">
      <defs>
       <path id="m6846b109f9" d="M 0 0 
L 0 9 
" style="stroke: #000000; stroke-width: 1.875"/>
      </defs>
      <g>
       <use xlink:href="#m6846b109f9" x="135.395097" y="284.4" style="stroke: #000000; stroke-width: 1.875"/>
      </g>
     </g>
     <g id="text_1">
      <!-- 1 -->
      <g transform="translate(130.146035 309.437422) scale(0.165 -0.165)">
       <defs>
        <path id="DejaVuSans-31" d="M 794 531 
L 1825 531 
L 1825 4091 
L 703 3866 
L 703 4441 
L 1819 4666 
L 2450 4666 
L 2450 531 
L 3481 531 
L 3481 0 
L 794 0 
L 794 531 
z
" transform="scale(0.015625)"/>
       </defs>
       <use xlink:href="#DejaVuSans-31"/>
      </g>
     </g>
    </g>
    <g id="xtick_2">
     <g id="line2d_2">
      <g>
       <use xlink:href="#m6846b109f9" x="220.67949" y="284.4" style="stroke: #000000; stroke-width: 1.875"/>
      </g>
     </g>
     <g id="text_2">
      <!-- 2 -->
      <g transform="translate(215.430427 309.437422) scale(0.165 -0.165)">
       <defs>
        <path id="DejaVuSans-32" d="M 1228 531 
L 3431 531 
L 3431 0 
L 469 0 
L 469 531 
Q 828 903 1448 1529 
Q 2069 2156 2228 2338 
Q 2531 2678 2651 2914 
Q 2772 3150 2772 3378 
Q 2772 3750 2511 3984 
Q 2250 4219 1831 4219 
Q 1534 4219 1204 4116 
Q 875 4013 500 3803 
L 500 4441 
Q 881 4594 1212 4672 
Q 1544 4750 1819 4750 
Q 2544 4750 2975 4387 
Q 3406 4025 3406 3419 
Q 3406 3131 3298 2873 
Q 3191 2616 2906 2266 
Q 2828 2175 2409 1742 
Q 1991 1309 1228 531 
z
" transform="scale(0.015625)"/>
       </defs>
       <use xlink:href="#DejaVuSans-32"/>
      </g>
     </g>
    </g>
    <g id="text_3">
     <!-- Total vertices -->
     <g transform="translate(118.720781 330.546094) scale(0.18 -0.18)">
      <defs>
       <path id="DejaVuSans-54" d="M -19 4666 
L 3928 4666 
L 3928 4134 
L 2272 4134 
L 2272 0 
L 1638 0 
L 1638 4134 
L -19 4134 
L -19 4666 
z
" transform="scale(0.015625)"/>
       <path id="DejaVuSans-6f" d="M 1959 3097 
Q 1497 3097 1228 2736 
Q 959 2375 959 1747 
Q 959 1119 1226 758 
Q 1494 397 1959 397 
Q 2419 397 2687 759 
Q 2956 1122 2956 1747 
Q 2956 2369 2687 2733 
Q 2419 3097 1959 3097 
z
M 1959 3584 
Q 2709 3584 3137 3096 
Q 3566 2609 3566 1747 
Q 3566 888 3137 398 
Q 2709 -91 1959 -91 
Q 1206 -91 779 398 
Q 353 888 353 1747 
Q 353 2609 779 3096 
Q 1206 3584 1959 3584 
z
" transform="scale(0.015625)"/>
       <path id="DejaVuSans-74" d="M 1172 4494 
L 1172 3500 
L 2356 3500 
L 2356 3053 
L 1172 3053 
L 1172 1153 
Q 1172 725 1289 603 
Q 1406 481 1766 481 
L 2356 481 
L 2356 0 
L 1766 0 
Q 1100 0 847 248 
Q 594 497 594 1153 
L 594 3053 
L 172 3053 
L 172 3500 
L 594 3500 
L 594 4494 
L 1172 4494 
z
" transform="scale(0.015625)"/>
       <path id="DejaVuSans-61" d="M 2194 1759 
Q 1497 1759 1228 1600 
Q 959 1441 959 1056 
Q 959 750 1161 570 
Q 1363 391 1709 391 
Q 2188 391 2477 730 
Q 2766 1069 2766 1631 
L 2766 1759 
L 2194 1759 
z
M 3341 1997 
L 3341 0 
L 2766 0 
L 2766 531 
Q 2569 213 2275 61 
Q 1981 -91 1556 -91 
Q 1019 -91 701 211 
Q 384 513 384 1019 
Q 384 1609 779 1909 
Q 1175 2209 1959 2209 
L 2766 2209 
L 2766 2266 
Q 2766 2663 2505 2880 
Q 2244 3097 1772 3097 
Q 1472 3097 1187 3025 
Q 903 2953 641 2809 
L 641 3341 
Q 956 3463 1253 3523 
Q 1550 3584 1831 3584 
Q 2591 3584 2966 3190 
Q 3341 2797 3341 1997 
z
" transform="scale(0.015625)"/>
       <path id="DejaVuSans-6c" d="M 603 4863 
L 1178 4863 
L 1178 0 
L 603 0 
L 603 4863 
z
" transform="scale(0.015625)"/>
       <path id="DejaVuSans-20" transform="scale(0.015625)"/>
       <path id="DejaVuSans-76" d="M 191 3500 
L 800 3500 
L 1894 563 
L 2988 3500 
L 3597 3500 
L 2284 0 
L 1503 0 
L 191 3500 
z
" transform="scale(0.015625)"/>
       <path id="DejaVuSans-65" d="M 3597 1894 
L 3597 1613 
L 953 1613 
Q 991 1019 1311 708 
Q 1631 397 2203 397 
Q 2534 397 2845 478 
Q 3156 559 3463 722 
L 3463 178 
Q 3153 47 2828 -22 
Q 2503 -91 2169 -91 
Q 1331 -91 842 396 
Q 353 884 353 1716 
Q 353 2575 817 3079 
Q 1281 3584 2069 3584 
Q 2775 3584 3186 3129 
Q 3597 2675 3597 1894 
z
M 3022 2063 
Q 3016 2534 2758 2815 
Q 2500 3097 2075 3097 
Q 1594 3097 1305 2825 
Q 1016 2553 972 2059 
L 3022 2063 
z
" transform="scale(0.015625)"/>
       <path id="DejaVuSans-72" d="M 2631 2963 
Q 2534 3019 2420 3045 
Q 2306 3072 2169 3072 
Q 1681 3072 1420 2755 
Q 1159 2438 1159 1844 
L 1159 0 
L 581 0 
L 581 3500 
L 1159 3500 
L 1159 2956 
Q 1341 3275 1631 3429 
Q 1922 3584 2338 3584 
Q 2397 3584 2469 3576 
Q 2541 3569 2628 3553 
L 2631 2963 
z
" transform="scale(0.015625)"/>
       <path id="DejaVuSans-69" d="M 603 3500 
L 1178 3500 
L 1178 0 
L 603 0 
L 603 3500 
z
M 603 4863 
L 1178 4863 
L 1178 4134 
L 603 4134 
L 603 4863 
z
" transform="scale(0.015625)"/>
       <path id="DejaVuSans-63" d="M 3122 3366 
L 3122 2828 
Q 2878 2963 2633 3030 
Q 2388 3097 2138 3097 
Q 1578 3097 1268 2742 
Q 959 2388 959 1747 
Q 959 1106 1268 751 
Q 1578 397 2138 397 
Q 2388 397 2633 464 
Q 2878 531 3122 666 
L 3122 134 
Q 2881 22 2623 -34 
Q 2366 -91 2075 -91 
Q 1284 -91 818 406 
Q 353 903 353 1747 
Q 353 2603 823 3093 
Q 1294 3584 2113 3584 
Q 2378 3584 2631 3529 
Q 2884 3475 3122 3366 
z
" transform="scale(0.015625)"/>
       <path id="DejaVuSans-73" d="M 2834 3397 
L 2834 2853 
Q 2591 2978 2328 3040 
Q 2066 3103 1784 3103 
Q 1356 3103 1142 2972 
Q 928 2841 928 2578 
Q 928 2378 1081 2264 
Q 1234 2150 1697 2047 
L 1894 2003 
Q 2506 1872 2764 1633 
Q 3022 1394 3022 966 
Q 3022 478 2636 193 
Q 2250 -91 1575 -91 
Q 1294 -91 989 -36 
Q 684 19 347 128 
L 347 722 
Q 666 556 975 473 
Q 1284 391 1588 391 
Q 1994 391 2212 530 
Q 2431 669 2431 922 
Q 2431 1156 2273 1281 
Q 2116 1406 1581 1522 
L 1381 1569 
Q 847 1681 609 1914 
Q 372 2147 372 2553 
Q 372 3047 722 3315 
Q 1072 3584 1716 3584 
Q 2034 3584 2315 3537 
Q 2597 3491 2834 3397 
z
" transform="scale(0.015625)"/>
      </defs>
      <use xlink:href="#DejaVuSans-54"/>
      <use xlink:href="#DejaVuSans-6f" x="44.083984"/>
      <use xlink:href="#DejaVuSans-74" x="105.265625"/>
      <use xlink:href="#DejaVuSans-61" x="144.474609"/>
      <use xlink:href="#DejaVuSans-6c" x="205.753906"/>
      <use xlink:href="#DejaVuSans-20" x="233.537109"/>
      <use xlink:href="#DejaVuSans-76" x="265.324219"/>
      <use xlink:href="#DejaVuSans-65" x="324.503906"/>
      <use xlink:href="#DejaVuSans-72" x="386.027344"/>
      <use xlink:href="#DejaVuSans-74" x="427.140625"/>
      <use xlink:href="#DejaVuSans-69" x="466.349609"/>
      <use xlink:href="#DejaVuSans-63" x="494.132812"/>
      <use xlink:href="#DejaVuSans-65" x="549.113281"/>
      <use xlink:href="#DejaVuSans-73" x="610.636719"/>
     </g>
    </g>
    <g id="text_4">
     <!-- 1e6 -->
     <g transform="translate(263.467969 328.406328) scale(0.165 -0.165)">
      <defs>
       <path id="DejaVuSans-36" d="M 2113 2584 
Q 1688 2584 1439 2293 
Q 1191 2003 1191 1497 
Q 1191 994 1439 701 
Q 1688 409 2113 409 
Q 2538 409 2786 701 
Q 3034 994 3034 1497 
Q 3034 2003 2786 2293 
Q 2538 2584 2113 2584 
z
M 3366 4563 
L 3366 3988 
Q 3128 4100 2886 4159 
Q 2644 4219 2406 4219 
Q 1781 4219 1451 3797 
Q 1122 3375 1075 2522 
Q 1259 2794 1537 2939 
Q 1816 3084 2150 3084 
Q 2853 3084 3261 2657 
Q 3669 2231 3669 1497 
Q 3669 778 3244 343 
Q 2819 -91 2113 -91 
Q 1303 -91 875 529 
Q 447 1150 447 2328 
Q 447 3434 972 4092 
Q 1497 4750 2381 4750 
Q 2619 4750 2861 4703 
Q 3103 4656 3366 4563 
z
" transform="scale(0.015625)"/>
      </defs>
      <use xlink:href="#DejaVuSans-31"/>
      <use xlink:href="#DejaVuSans-65" x="63.623047"/>
      <use xlink:href="#DejaVuSans-36" x="125.146484"/>
     </g>
    </g>
   </g>
   <g id="matplotlib.axis_2">
    <g id="ytick_1">
     <g id="line2d_3">
      <defs>
       <path id="mede9da6d19" d="M 0 0 
L -9 0 
" style="stroke: #000000; stroke-width: 1.875"/>
      </defs>
      <g>
       <use xlink:href="#mede9da6d19" x="62.116875" y="284.4" style="stroke: #000000; stroke-width: 1.875"/>
      </g>
     </g>
     <g id="text_5">
      <!-- 0 -->
      <g transform="translate(39.11875 290.668711) scale(0.165 -0.165)">
       <defs>
        <path id="DejaVuSans-30" d="M 2034 4250 
Q 1547 4250 1301 3770 
Q 1056 3291 1056 2328 
Q 1056 1369 1301 889 
Q 1547 409 2034 409 
Q 2525 409 2770 889 
Q 3016 1369 3016 2328 
Q 3016 3291 2770 3770 
Q 2525 4250 2034 4250 
z
M 2034 4750 
Q 2819 4750 3233 4129 
Q 3647 3509 3647 2328 
Q 3647 1150 3233 529 
Q 2819 -91 2034 -91 
Q 1250 -91 836 529 
Q 422 1150 422 2328 
Q 422 3509 836 4129 
Q 1250 4750 2034 4750 
z
" transform="scale(0.015625)"/>
       </defs>
       <use xlink:href="#DejaVuSans-30"/>
      </g>
     </g>
    </g>
    <g id="ytick_2">
     <g id="line2d_4">
      <g>
       <use xlink:href="#mede9da6d19" x="62.116875" y="233.514186" style="stroke: #000000; stroke-width: 1.875"/>
      </g>
     </g>
     <g id="text_6">
      <!-- 5 -->
      <g transform="translate(39.11875 239.782896) scale(0.165 -0.165)">
       <defs>
        <path id="DejaVuSans-35" d="M 691 4666 
L 3169 4666 
L 3169 4134 
L 1269 4134 
L 1269 2991 
Q 1406 3038 1543 3061 
Q 1681 3084 1819 3084 
Q 2600 3084 3056 2656 
Q 3513 2228 3513 1497 
Q 3513 744 3044 326 
Q 2575 -91 1722 -91 
Q 1428 -91 1123 -41 
Q 819 9 494 109 
L 494 744 
Q 775 591 1075 516 
Q 1375 441 1709 441 
Q 2250 441 2565 725 
Q 2881 1009 2881 1497 
Q 2881 1984 2565 2268 
Q 2250 2553 1709 2553 
Q 1456 2553 1204 2497 
Q 953 2441 691 2322 
L 691 4666 
z
" transform="scale(0.015625)"/>
       </defs>
       <use xlink:href="#DejaVuSans-35"/>
      </g>
     </g>
    </g>
    <g id="ytick_3">
     <g id="line2d_5">
      <g>
       <use xlink:href="#mede9da6d19" x="62.116875" y="182.628371" style="stroke: #000000; stroke-width: 1.875"/>
      </g>
     </g>
     <g id="text_7">
      <!-- 10 -->
      <g transform="translate(28.620625 188.897082) scale(0.165 -0.165)">
       <use xlink:href="#DejaVuSans-31"/>
       <use xlink:href="#DejaVuSans-30" x="63.623047"/>
      </g>
     </g>
    </g>
    <g id="ytick_4">
     <g id="line2d_6">
      <g>
       <use xlink:href="#mede9da6d19" x="62.116875" y="131.742557" style="stroke: #000000; stroke-width: 1.875"/>
      </g>
     </g>
     <g id="text_8">
      <!-- 15 -->
      <g transform="translate(28.620625 138.011268) scale(0.165 -0.165)">
       <use xlink:href="#DejaVuSans-31"/>
       <use xlink:href="#DejaVuSans-35" x="63.623047"/>
      </g>
     </g>
    </g>
    <g id="ytick_5">
     <g id="line2d_7">
      <g>
       <use xlink:href="#mede9da6d19" x="62.116875" y="80.856742" style="stroke: #000000; stroke-width: 1.875"/>
      </g>
     </g>
     <g id="text_9">
      <!-- 20 -->
      <g transform="translate(28.620625 87.125453) scale(0.165 -0.165)">
       <use xlink:href="#DejaVuSans-32"/>
       <use xlink:href="#DejaVuSans-30" x="63.623047"/>
      </g>
     </g>
    </g>
    <g id="ytick_6">
     <g id="line2d_8">
      <g>
       <use xlink:href="#mede9da6d19" x="62.116875" y="29.970928" style="stroke: #000000; stroke-width: 1.875"/>
      </g>
     </g>
     <g id="text_10">
      <!-- 25 -->
      <g transform="translate(28.620625 36.239639) scale(0.165 -0.165)">
       <use xlink:href="#DejaVuSans-32"/>
       <use xlink:href="#DejaVuSans-35" x="63.623047"/>
      </g>
     </g>
    </g>
    <g id="text_11">
     <!-- Total wall time (min) -->
     <g transform="translate(20.877188 237.601406) rotate(-90) scale(0.18 -0.18)">
      <defs>
       <path id="DejaVuSans-77" d="M 269 3500 
L 844 3500 
L 1563 769 
L 2278 3500 
L 2956 3500 
L 3675 769 
L 4391 3500 
L 4966 3500 
L 4050 0 
L 3372 0 
L 2619 2869 
L 1863 0 
L 1184 0 
L 269 3500 
z
" transform="scale(0.015625)"/>
       <path id="DejaVuSans-6d" d="M 3328 2828 
Q 3544 3216 3844 3400 
Q 4144 3584 4550 3584 
Q 5097 3584 5394 3201 
Q 5691 2819 5691 2113 
L 5691 0 
L 5113 0 
L 5113 2094 
Q 5113 2597 4934 2840 
Q 4756 3084 4391 3084 
Q 3944 3084 3684 2787 
Q 3425 2491 3425 1978 
L 3425 0 
L 2847 0 
L 2847 2094 
Q 2847 2600 2669 2842 
Q 2491 3084 2119 3084 
Q 1678 3084 1418 2786 
Q 1159 2488 1159 1978 
L 1159 0 
L 581 0 
L 581 3500 
L 1159 3500 
L 1159 2956 
Q 1356 3278 1631 3431 
Q 1906 3584 2284 3584 
Q 2666 3584 2933 3390 
Q 3200 3197 3328 2828 
z
" transform="scale(0.015625)"/>
       <path id="DejaVuSans-28" d="M 1984 4856 
Q 1566 4138 1362 3434 
Q 1159 2731 1159 2009 
Q 1159 1288 1364 580 
Q 1569 -128 1984 -844 
L 1484 -844 
Q 1016 -109 783 600 
Q 550 1309 550 2009 
Q 550 2706 781 3412 
Q 1013 4119 1484 4856 
L 1984 4856 
z
" transform="scale(0.015625)"/>
       <path id="DejaVuSans-6e" d="M 3513 2113 
L 3513 0 
L 2938 0 
L 2938 2094 
Q 2938 2591 2744 2837 
Q 2550 3084 2163 3084 
Q 1697 3084 1428 2787 
Q 1159 2491 1159 1978 
L 1159 0 
L 581 0 
L 581 3500 
L 1159 3500 
L 1159 2956 
Q 1366 3272 1645 3428 
Q 1925 3584 2291 3584 
Q 2894 3584 3203 3211 
Q 3513 2838 3513 2113 
z
" transform="scale(0.015625)"/>
       <path id="DejaVuSans-29" d="M 513 4856 
L 1013 4856 
Q 1481 4119 1714 3412 
Q 1947 2706 1947 2009 
Q 1947 1309 1714 600 
Q 1481 -109 1013 -844 
L 513 -844 
Q 928 -128 1133 580 
Q 1338 1288 1338 2009 
Q 1338 2731 1133 3434 
Q 928 4138 513 4856 
z
" transform="scale(0.015625)"/>
      </defs>
      <use xlink:href="#DejaVuSans-54"/>
      <use xlink:href="#DejaVuSans-6f" x="44.083984"/>
      <use xlink:href="#DejaVuSans-74" x="105.265625"/>
      <use xlink:href="#DejaVuSans-61" x="144.474609"/>
      <use xlink:href="#DejaVuSans-6c" x="205.753906"/>
      <use xlink:href="#DejaVuSans-20" x="233.537109"/>
      <use xlink:href="#DejaVuSans-77" x="265.324219"/>
      <use xlink:href="#DejaVuSans-61" x="347.111328"/>
      <use xlink:href="#DejaVuSans-6c" x="408.390625"/>
      <use xlink:href="#DejaVuSans-6c" x="436.173828"/>
      <use xlink:href="#DejaVuSans-20" x="463.957031"/>
      <use xlink:href="#DejaVuSans-74" x="495.744141"/>
      <use xlink:href="#DejaVuSans-69" x="534.953125"/>
      <use xlink:href="#DejaVuSans-6d" x="562.736328"/>
      <use xlink:href="#DejaVuSans-65" x="660.148438"/>
      <use xlink:href="#DejaVuSans-20" x="721.671875"/>
      <use xlink:href="#DejaVuSans-28" x="753.458984"/>
      <use xlink:href="#DejaVuSans-6d" x="792.472656"/>
      <use xlink:href="#DejaVuSans-69" x="889.884766"/>
      <use xlink:href="#DejaVuSans-6e" x="917.667969"/>
      <use xlink:href="#DejaVuSans-29" x="981.046875"/>
     </g>
    </g>
   </g>
   <g id="patch_3">
    <path d="M 62.116875 284.4 
L 62.116875 7.2 
" style="fill: none; stroke: #000000; stroke-width: 1.875; stroke-linejoin: miter; stroke-linecap: square"/>
   </g>
   <g id="patch_4">
    <path d="M 62.116875 284.4 
L 294.616875 284.4 
" style="fill: none; stroke: #000000; stroke-width: 1.875; stroke-linejoin: miter; stroke-linecap: square"/>
   </g>
  </g>
  <g id="axes_2">
   <g id="PolyCollection_1">
    <defs>
     <path id="maf3faf70a7" d="M 301.372066 -57.089531 
L 294.616875 -57.089531 
L 294.616875 -58.416164 
L 294.616875 -59.742798 
L 294.616875 -61.069431 
L 294.616875 -62.396064 
L 294.616875 -63.722697 
L 294.616875 -65.04933 
L 294.616875 -66.375963 
L 294.616875 -67.702597 
L 294.616875 -69.02923 
L 294.616875 -70.355863 
L 294.616875 -71.682496 
L 294.616875 -73.009129 
L 294.616875 -74.335762 
L 294.616875 -75.662396 
L 294.616875 -76.989029 
L 294.616875 -78.315662 
L 294.616875 -79.642295 
L 294.616875 -80.968928 
L 294.616875 -82.295561 
L 294.616875 -83.622195 
L 294.616875 -84.948828 
L 294.616875 -86.275461 
L 294.616875 -87.602094 
L 294.616875 -88.928727 
L 294.616875 -90.25536 
L 294.616875 -91.581994 
L 294.616875 -92.908627 
L 294.616875 -94.23526 
L 294.616875 -95.561893 
L 294.616875 -96.888526 
L 294.616875 -98.215159 
L 294.616875 -99.541793 
L 294.616875 -100.868426 
L 294.616875 -102.195059 
L 294.616875 -103.521692 
L 294.616875 -104.848325 
L 294.616875 -106.174958 
L 294.616875 -107.501592 
L 294.616875 -108.828225 
L 294.616875 -110.154858 
L 294.616875 -111.481491 
L 294.616875 -112.808124 
L 294.616875 -114.134757 
L 294.616875 -115.461391 
L 294.616875 -116.788024 
L 294.616875 -118.114657 
L 294.616875 -119.44129 
L 294.616875 -120.767923 
L 294.616875 -122.094556 
L 294.616875 -123.42119 
L 294.616875 -124.747823 
L 294.616875 -126.074456 
L 294.616875 -127.401089 
L 294.616875 -128.727722 
L 294.616875 -130.054355 
L 294.616875 -131.380989 
L 294.616875 -132.707622 
L 294.616875 -134.034255 
L 294.616875 -135.360888 
L 294.616875 -136.687521 
L 294.616875 -138.014154 
L 294.616875 -139.340788 
L 294.616875 -140.667421 
L 294.616875 -141.994054 
L 294.616875 -143.320687 
L 294.616875 -144.64732 
L 294.616875 -145.973953 
L 294.616875 -147.300587 
L 294.616875 -148.62722 
L 294.616875 -149.953853 
L 294.616875 -151.280486 
L 294.616875 -152.607119 
L 294.616875 -153.933752 
L 294.616875 -155.260386 
L 294.616875 -156.587019 
L 294.616875 -157.913652 
L 294.616875 -159.240285 
L 294.616875 -160.566918 
L 294.616875 -161.893551 
L 294.616875 -163.220185 
L 294.616875 -164.546818 
L 294.616875 -165.873451 
L 294.616875 -167.200084 
L 294.616875 -168.526717 
L 294.616875 -169.85335 
L 294.616875 -171.179984 
L 294.616875 -172.506617 
L 294.616875 -173.83325 
L 294.616875 -175.159883 
L 294.616875 -176.486516 
L 294.616875 -177.813149 
L 294.616875 -179.139783 
L 294.616875 -180.466416 
L 294.616875 -181.793049 
L 294.616875 -183.119682 
L 294.616875 -184.446315 
L 294.616875 -185.772948 
L 294.616875 -187.099582 
L 294.616875 -188.426215 
L 294.616875 -189.752848 
L 294.616875 -191.079481 
L 294.616875 -192.406114 
L 294.616875 -193.732747 
L 294.616875 -195.05938 
L 294.616875 -196.386014 
L 294.616875 -197.712647 
L 294.616875 -199.03928 
L 294.616875 -200.365913 
L 294.616875 -201.692546 
L 294.616875 -203.019179 
L 294.616875 -204.345813 
L 294.616875 -205.672446 
L 294.616875 -206.999079 
L 294.616875 -208.325712 
L 294.616875 -209.652345 
L 294.616875 -210.978978 
L 294.616875 -212.305612 
L 294.616875 -213.632245 
L 294.616875 -214.958878 
L 294.616875 -216.285511 
L 294.616875 -217.612144 
L 294.616875 -218.938777 
L 294.616875 -220.265411 
L 294.616875 -221.592044 
L 294.616875 -222.918677 
L 294.616875 -224.24531 
L 294.616875 -225.571943 
L 294.616875 -226.898576 
L 294.616875 -228.22521 
L 294.616875 -229.551843 
L 294.616875 -230.878476 
L 294.616875 -232.205109 
L 294.616875 -233.531742 
L 294.616875 -234.858375 
L 294.616875 -236.185009 
L 294.616875 -237.511642 
L 294.616875 -238.838275 
L 294.616875 -240.164908 
L 294.616875 -241.491541 
L 294.616875 -242.818174 
L 294.616875 -244.144808 
L 294.616875 -245.471441 
L 294.616875 -246.798074 
L 294.616875 -248.124707 
L 294.616875 -249.45134 
L 294.616875 -250.777973 
L 294.616875 -252.104607 
L 294.616875 -253.43124 
L 294.616875 -254.757873 
L 294.616875 -256.084506 
L 294.616875 -257.411139 
L 294.616875 -258.737772 
L 294.616875 -260.064406 
L 294.616875 -261.391039 
L 294.616875 -262.717672 
L 294.616875 -264.044305 
L 294.616875 -265.370938 
L 294.616875 -266.697571 
L 294.616875 -268.024205 
L 294.616875 -269.350838 
L 294.616875 -270.677471 
L 294.616875 -272.004104 
L 294.616875 -273.330737 
L 294.616875 -274.65737 
L 294.616875 -275.984004 
L 294.616875 -277.310637 
L 294.616875 -278.63727 
L 294.616875 -279.963903 
L 294.616875 -281.290536 
L 294.616875 -282.617169 
L 294.616875 -283.943803 
L 294.616875 -285.270436 
L 294.616875 -286.597069 
L 294.616875 -287.923702 
L 294.616875 -289.250335 
L 294.616875 -290.576968 
L 294.616875 -291.903602 
L 294.616875 -293.230235 
L 294.616875 -294.556868 
L 294.616875 -295.883501 
L 294.616875 -297.210134 
L 294.616875 -298.536767 
L 294.616875 -299.863401 
L 294.616875 -301.190034 
L 294.616875 -302.516667 
L 294.616875 -303.8433 
L 294.616875 -305.169933 
L 294.616875 -306.496566 
L 294.616875 -307.8232 
L 294.616875 -309.149833 
L 294.616875 -310.476466 
L 294.616875 -311.803099 
L 294.616875 -313.129732 
L 294.616875 -314.456365 
L 294.616875 -315.782999 
L 294.616875 -317.109632 
L 294.616875 -318.436265 
L 294.616875 -319.762898 
L 294.616875 -321.089531 
L 294.635 -321.089531 
L 294.635 -321.089531 
L 294.63915 -319.762898 
L 294.644117 -318.436265 
L 294.650032 -317.109632 
L 294.657037 -315.782999 
L 294.665287 -314.456365 
L 294.674951 -313.129732 
L 294.686209 -311.803099 
L 294.69925 -310.476466 
L 294.714273 -309.149833 
L 294.731481 -307.8232 
L 294.75108 -306.496566 
L 294.773276 -305.169933 
L 294.798266 -303.8433 
L 294.826238 -302.516667 
L 294.857363 -301.190034 
L 294.891789 -299.863401 
L 294.929635 -298.536767 
L 294.970987 -297.210134 
L 295.015886 -295.883501 
L 295.064328 -294.556868 
L 295.116257 -293.230235 
L 295.171555 -291.903602 
L 295.230046 -290.576968 
L 295.29149 -289.250335 
L 295.355578 -287.923702 
L 295.42194 -286.597069 
L 295.490144 -285.270436 
L 295.559697 -283.943803 
L 295.630057 -282.617169 
L 295.70064 -281.290536 
L 295.770826 -279.963903 
L 295.839979 -278.63727 
L 295.907453 -277.310637 
L 295.972611 -275.984004 
L 296.034841 -274.65737 
L 296.093571 -273.330737 
L 296.148284 -272.004104 
L 296.198536 -270.677471 
L 296.243971 -269.350838 
L 296.284331 -268.024205 
L 296.31947 -266.697571 
L 296.34936 -265.370938 
L 296.374099 -264.044305 
L 296.393915 -262.717672 
L 296.409158 -261.391039 
L 296.420307 -260.064406 
L 296.427952 -258.737772 
L 296.432791 -257.411139 
L 296.435613 -256.084506 
L 296.437281 -254.757873 
L 296.438716 -253.43124 
L 296.440873 -252.104607 
L 296.444724 -250.777973 
L 296.451233 -249.45134 
L 296.461332 -248.124707 
L 296.475905 -246.798074 
L 296.495761 -245.471441 
L 296.521619 -244.144808 
L 296.554092 -242.818174 
L 296.593669 -241.491541 
L 296.640706 -240.164908 
L 296.695421 -238.838275 
L 296.757882 -237.511642 
L 296.82801 -236.185009 
L 296.90558 -234.858375 
L 296.990222 -233.531742 
L 297.081433 -232.205109 
L 297.178584 -230.878476 
L 297.280932 -229.551843 
L 297.387633 -228.22521 
L 297.497763 -226.898576 
L 297.610326 -225.571943 
L 297.72428 -224.24531 
L 297.838549 -222.918677 
L 297.952046 -221.592044 
L 298.063687 -220.265411 
L 298.172413 -218.938777 
L 298.277205 -217.612144 
L 298.377101 -216.285511 
L 298.471213 -214.958878 
L 298.55874 -213.632245 
L 298.638984 -212.305612 
L 298.71136 -210.978978 
L 298.775406 -209.652345 
L 298.830797 -208.325712 
L 298.877347 -206.999079 
L 298.915018 -205.672446 
L 298.943921 -204.345813 
L 298.964321 -203.019179 
L 298.976632 -201.692546 
L 298.981416 -200.365913 
L 298.979379 -199.03928 
L 298.971358 -197.712647 
L 298.958316 -196.386014 
L 298.941325 -195.05938 
L 298.921553 -193.732747 
L 298.90025 -192.406114 
L 298.878723 -191.079481 
L 298.858326 -189.752848 
L 298.840434 -188.426215 
L 298.826428 -187.099582 
L 298.817673 -185.772948 
L 298.815505 -184.446315 
L 298.821217 -183.119682 
L 298.83604 -181.793049 
L 298.861146 -180.466416 
L 298.897632 -179.139783 
L 298.946527 -177.813149 
L 299.008794 -176.486516 
L 299.085334 -175.159883 
L 299.177005 -173.83325 
L 299.284634 -172.506617 
L 299.409037 -171.179984 
L 299.551042 -169.85335 
L 299.711514 -168.526717 
L 299.89138 -167.200084 
L 300.091652 -165.873451 
L 300.313456 -164.546818 
L 300.558046 -163.220185 
L 300.826829 -161.893551 
L 301.121373 -160.566918 
L 301.443416 -159.240285 
L 301.794868 -157.913652 
L 302.177797 -156.587019 
L 302.594421 -155.260386 
L 303.047078 -153.933752 
L 303.538197 -152.607119 
L 304.070251 -151.280486 
L 304.645713 -149.953853 
L 305.266989 -148.62722 
L 305.936363 -147.300587 
L 306.65592 -145.973953 
L 307.427469 -144.64732 
L 308.252472 -143.320687 
L 309.131959 -141.994054 
L 310.066449 -140.667421 
L 311.05588 -139.340788 
L 312.09953 -138.014154 
L 313.195959 -136.687521 
L 314.342951 -135.360888 
L 315.537469 -134.034255 
L 316.775623 -132.707622 
L 318.052655 -131.380989 
L 319.36293 -130.054355 
L 320.699957 -128.727722 
L 322.056418 -127.401089 
L 323.424214 -126.074456 
L 324.794538 -124.747823 
L 326.157954 -123.42119 
L 327.504498 -122.094556 
L 328.823797 -120.767923 
L 330.10519 -119.44129 
L 331.337877 -118.114657 
L 332.511059 -116.788024 
L 333.614094 -115.461391 
L 334.636657 -114.134757 
L 335.568891 -112.808124 
L 336.401565 -111.481491 
L 337.126213 -110.154858 
L 337.735278 -108.828225 
L 338.222227 -107.501592 
L 338.581663 -106.174958 
L 338.809412 -104.848325 
L 338.902589 -103.521692 
L 338.859652 -102.195059 
L 338.68042 -100.868426 
L 338.366077 -99.541793 
L 337.919148 -98.215159 
L 337.343458 -96.888526 
L 336.644065 -95.561893 
L 335.827173 -94.23526 
L 334.90003 -92.908627 
L 333.870811 -91.581994 
L 332.748487 -90.25536 
L 331.54268 -88.928727 
L 330.263524 -87.602094 
L 328.921509 -86.275461 
L 327.527334 -84.948828 
L 326.091758 -83.622195 
L 324.625461 -82.295561 
L 323.138907 -80.968928 
L 321.642225 -79.642295 
L 320.145096 -78.315662 
L 318.656657 -76.989029 
L 317.18542 -75.662396 
L 315.739202 -74.335762 
L 314.32508 -73.009129 
L 312.949348 -71.682496 
L 311.617504 -70.355863 
L 310.334238 -69.02923 
L 309.103441 -67.702597 
L 307.928224 -66.375963 
L 306.810943 -65.04933 
L 305.753244 -63.722697 
L 304.7561 -62.396064 
L 303.819867 -61.069431 
L 302.944335 -59.742798 
L 302.128789 -58.416164 
L 301.372066 -57.089531 
z
" style="stroke: #1f77b4; stroke-width: 1.5"/>
    </defs>
    <g clip-path="url(#p5628a585ba)">
     <use xlink:href="#maf3faf70a7" x="0" y="341.489531" style="fill: #1f77b4; fill-opacity: 0.25; stroke: #1f77b4; stroke-width: 1.5"/>
    </g>
   </g>
   <g id="line2d_9">
    <path d="M 294.616875 223.585273 
L 329.956875 223.585273 
" clip-path="url(#p5628a585ba)" style="fill: none; stroke: #1f77b4; stroke-width: 2.25; stroke-linecap: square"/>
   </g>
  </g>
 </g>
 <defs>
  <clipPath id="p343322580e">
   <rect x="62.116875" y="7.2" width="232.5" height="277.2"/>
  </clipPath>
  <clipPath id="p5628a585ba">
   <rect x="294.616875" y="7.2" width="46.5" height="277.2"/>
  </clipPath>
 </defs>
</svg>
