<?xml version="1.0" encoding="utf-8" standalone="no"?>
<!DOCTYPE svg PUBLIC "-//W3C//DTD SVG 1.1//EN"
  "http://www.w3.org/Graphics/SVG/1.1/DTD/svg11.dtd">
<svg xmlns:xlink="http://www.w3.org/1999/xlink" width="346.34625pt" height="457.92pt" viewBox="0 0 346.34625 457.92" xmlns="http://www.w3.org/2000/svg" version="1.1">
 <metadata>
  <rdf:RDF xmlns:dc="http://purl.org/dc/elements/1.1/" xmlns:cc="http://creativecommons.org/ns#" xmlns:rdf="http://www.w3.org/1999/02/22-rdf-syntax-ns#">
   <cc:Work>
    <dc:type rdf:resource="http://purl.org/dc/dcmitype/StillImage"/>
    <dc:date>2025-03-12T17:01:06.849263</dc:date>
    <dc:format>image/svg+xml</dc:format>
    <dc:creator>
     <cc:Agent>
      <dc:title>Matplotlib v3.10.0, https://matplotlib.org/</dc:title>
     </cc:Agent>
    </dc:creator>
   </cc:Work>
  </rdf:RDF>
 </metadata>
 <defs>
  <style type="text/css">*{stroke-linejoin: round; stroke-linecap: butt}</style>
 </defs>
 <g id="figure_1">
  <g id="patch_1">
   <path d="M 0 457.92 
L 346.34625 457.92 
L 346.34625 0 
L 0 0 
z
" style="fill: #ffffff"/>
  </g>
  <g id="axes_1">
   <g id="patch_2">
    <path d="M 72.615 450.72 
L 295.815 450.72 
L 295.815 7.2 
L 72.615 7.2 
z
" style="fill: #ffffff"/>
   </g>
   <g id="line2d_1">
    <path d="M 72.615 71.078833 
L 295.815 71.078833 
" clip-path="url(#p6fe830a9fa)" style="fill: none; stroke-dasharray: 7.4,3.2; stroke-dashoffset: 0; stroke: #808080; stroke-opacity: 0.3; stroke-width: 2"/>
   </g>
   <g id="line2d_2">
    <path d="M 72.615 112.796401 
L 295.815 112.796401 
" clip-path="url(#p6fe830a9fa)" style="fill: none; stroke-dasharray: 7.4,3.2; stroke-dashoffset: 0; stroke: #808080; stroke-opacity: 0.3; stroke-width: 2"/>
   </g>
   <g id="line2d_3">
    <path d="M 72.615 174.620444 
L 295.815 174.620444 
" clip-path="url(#p6fe830a9fa)" style="fill: none; stroke-dasharray: 7.4,3.2; stroke-dashoffset: 0; stroke: #808080; stroke-opacity: 0.3; stroke-width: 2"/>
   </g>
   <g id="line2d_4">
    <path d="M 72.615 237.411845 
L 295.815 237.411845 
" clip-path="url(#p6fe830a9fa)" style="fill: none; stroke-dasharray: 7.4,3.2; stroke-dashoffset: 0; stroke: #808080; stroke-opacity: 0.3; stroke-width: 2"/>
   </g>
   <g id="line2d_5">
    <path d="M 72.615 314.509721 
L 295.815 314.509721 
" clip-path="url(#p6fe830a9fa)" style="fill: none; stroke-dasharray: 7.4,3.2; stroke-dashoffset: 0; stroke: #808080; stroke-opacity: 0.3; stroke-width: 2"/>
   </g>
   <g id="line2d_6">
    <path d="M 72.615 377.490661 
L 295.815 377.490661 
" clip-path="url(#p6fe830a9fa)" style="fill: none; stroke-dasharray: 7.4,3.2; stroke-dashoffset: 0; stroke: #808080; stroke-opacity: 0.3; stroke-width: 2"/>
   </g>
   <g id="matplotlib.axis_1"/>
   <g id="matplotlib.axis_2">
    <g id="ytick_1">
     <g id="line2d_7">
      <defs>
       <path id="m12ec4d084b" d="M 0 0 
L -9 0 
" style="stroke: #000000; stroke-width: 1.875"/>
      </defs>
      <g>
       <use xlink:href="#m12ec4d084b" x="72.615" y="49.957909" style="stroke: #000000; stroke-width: 1.875"/>
      </g>
     </g>
     <g id="text_1">
      <!-- 0 -->
      <g transform="translate(49.616875 56.22662) scale(0.165 -0.165)">
       <defs>
        <path id="DejaVuSans-30" d="M 2034 4250 
Q 1547 4250 1301 3770 
Q 1056 3291 1056 2328 
Q 1056 1369 1301 889 
Q 1547 409 2034 409 
Q 2525 409 2770 889 
Q 3016 1369 3016 2328 
Q 3016 3291 2770 3770 
Q 2525 4250 2034 4250 
z
M 2034 4750 
Q 2819 4750 3233 4129 
Q 3647 3509 3647 2328 
Q 3647 1150 3233 529 
Q 2819 -91 2034 -91 
Q 1250 -91 836 529 
Q 422 1150 422 2328 
Q 422 3509 836 4129 
Q 1250 4750 2034 4750 
z
" transform="scale(0.015625)"/>
       </defs>
       <use xlink:href="#DejaVuSans-30"/>
      </g>
     </g>
    </g>
    <g id="ytick_2">
     <g id="line2d_8">
      <g>
       <use xlink:href="#m12ec4d084b" x="72.615" y="138.885544" style="stroke: #000000; stroke-width: 1.875"/>
      </g>
     </g>
     <g id="text_2">
      <!-- 200 -->
      <g transform="translate(28.620625 145.154255) scale(0.165 -0.165)">
       <defs>
        <path id="DejaVuSans-32" d="M 1228 531 
L 3431 531 
L 3431 0 
L 469 0 
L 469 531 
Q 828 903 1448 1529 
Q 2069 2156 2228 2338 
Q 2531 2678 2651 2914 
Q 2772 3150 2772 3378 
Q 2772 3750 2511 3984 
Q 2250 4219 1831 4219 
Q 1534 4219 1204 4116 
Q 875 4013 500 3803 
L 500 4441 
Q 881 4594 1212 4672 
Q 1544 4750 1819 4750 
Q 2544 4750 2975 4387 
Q 3406 4025 3406 3419 
Q 3406 3131 3298 2873 
Q 3191 2616 2906 2266 
Q 2828 2175 2409 1742 
Q 1991 1309 1228 531 
z
" transform="scale(0.015625)"/>
       </defs>
       <use xlink:href="#DejaVuSans-32"/>
       <use xlink:href="#DejaVuSans-30" transform="translate(63.623047 0)"/>
       <use xlink:href="#DejaVuSans-30" transform="translate(127.246094 0)"/>
      </g>
     </g>
    </g>
    <g id="ytick_3">
     <g id="line2d_9">
      <g>
       <use xlink:href="#m12ec4d084b" x="72.615" y="227.813179" style="stroke: #000000; stroke-width: 1.875"/>
      </g>
     </g>
     <g id="text_3">
      <!-- 400 -->
      <g transform="translate(28.620625 234.08189) scale(0.165 -0.165)">
       <defs>
        <path id="DejaVuSans-34" d="M 2419 4116 
L 825 1625 
L 2419 1625 
L 2419 4116 
z
M 2253 4666 
L 3047 4666 
L 3047 1625 
L 3713 1625 
L 3713 1100 
L 3047 1100 
L 3047 0 
L 2419 0 
L 2419 1100 
L 313 1100 
L 313 1709 
L 2253 4666 
z
" transform="scale(0.015625)"/>
       </defs>
       <use xlink:href="#DejaVuSans-34"/>
       <use xlink:href="#DejaVuSans-30" transform="translate(63.623047 0)"/>
       <use xlink:href="#DejaVuSans-30" transform="translate(127.246094 0)"/>
      </g>
     </g>
    </g>
    <g id="ytick_4">
     <g id="line2d_10">
      <g>
       <use xlink:href="#m12ec4d084b" x="72.615" y="316.740814" style="stroke: #000000; stroke-width: 1.875"/>
      </g>
     </g>
     <g id="text_4">
      <!-- 600 -->
      <g transform="translate(28.620625 323.009525) scale(0.165 -0.165)">
       <defs>
        <path id="DejaVuSans-36" d="M 2113 2584 
Q 1688 2584 1439 2293 
Q 1191 2003 1191 1497 
Q 1191 994 1439 701 
Q 1688 409 2113 409 
Q 2538 409 2786 701 
Q 3034 994 3034 1497 
Q 3034 2003 2786 2293 
Q 2538 2584 2113 2584 
z
M 3366 4563 
L 3366 3988 
Q 3128 4100 2886 4159 
Q 2644 4219 2406 4219 
Q 1781 4219 1451 3797 
Q 1122 3375 1075 2522 
Q 1259 2794 1537 2939 
Q 1816 3084 2150 3084 
Q 2853 3084 3261 2657 
Q 3669 2231 3669 1497 
Q 3669 778 3244 343 
Q 2819 -91 2113 -91 
Q 1303 -91 875 529 
Q 447 1150 447 2328 
Q 447 3434 972 4092 
Q 1497 4750 2381 4750 
Q 2619 4750 2861 4703 
Q 3103 4656 3366 4563 
z
" transform="scale(0.015625)"/>
       </defs>
       <use xlink:href="#DejaVuSans-36"/>
       <use xlink:href="#DejaVuSans-30" transform="translate(63.623047 0)"/>
       <use xlink:href="#DejaVuSans-30" transform="translate(127.246094 0)"/>
      </g>
     </g>
    </g>
    <g id="ytick_5">
     <g id="line2d_11">
      <g>
       <use xlink:href="#m12ec4d084b" x="72.615" y="405.668449" style="stroke: #000000; stroke-width: 1.875"/>
      </g>
     </g>
     <g id="text_5">
      <!-- 800 -->
      <g transform="translate(28.620625 411.93716) scale(0.165 -0.165)">
       <defs>
        <path id="DejaVuSans-38" d="M 2034 2216 
Q 1584 2216 1326 1975 
Q 1069 1734 1069 1313 
Q 1069 891 1326 650 
Q 1584 409 2034 409 
Q 2484 409 2743 651 
Q 3003 894 3003 1313 
Q 3003 1734 2745 1975 
Q 2488 2216 2034 2216 
z
M 1403 2484 
Q 997 2584 770 2862 
Q 544 3141 544 3541 
Q 544 4100 942 4425 
Q 1341 4750 2034 4750 
Q 2731 4750 3128 4425 
Q 3525 4100 3525 3541 
Q 3525 3141 3298 2862 
Q 3072 2584 2669 2484 
Q 3125 2378 3379 2068 
Q 3634 1759 3634 1313 
Q 3634 634 3220 271 
Q 2806 -91 2034 -91 
Q 1263 -91 848 271 
Q 434 634 434 1313 
Q 434 1759 690 2068 
Q 947 2378 1403 2484 
z
M 1172 3481 
Q 1172 3119 1398 2916 
Q 1625 2713 2034 2713 
Q 2441 2713 2670 2916 
Q 2900 3119 2900 3481 
Q 2900 3844 2670 4047 
Q 2441 4250 2034 4250 
Q 1625 4250 1398 4047 
Q 1172 3844 1172 3481 
z
" transform="scale(0.015625)"/>
       </defs>
       <use xlink:href="#DejaVuSans-38"/>
       <use xlink:href="#DejaVuSans-30" transform="translate(63.623047 0)"/>
       <use xlink:href="#DejaVuSans-30" transform="translate(127.246094 0)"/>
      </g>
     </g>
    </g>
    <g id="text_6">
     <!-- Y (um) -->
     <g transform="translate(20.877188 258.810469) rotate(-90) scale(0.18 -0.18)">
      <defs>
       <path id="DejaVuSans-59" d="M -13 4666 
L 666 4666 
L 1959 2747 
L 3244 4666 
L 3922 4666 
L 2272 2222 
L 2272 0 
L 1638 0 
L 1638 2222 
L -13 4666 
z
" transform="scale(0.015625)"/>
       <path id="DejaVuSans-20" transform="scale(0.015625)"/>
       <path id="DejaVuSans-28" d="M 1984 4856 
Q 1566 4138 1362 3434 
Q 1159 2731 1159 2009 
Q 1159 1288 1364 580 
Q 1569 -128 1984 -844 
L 1484 -844 
Q 1016 -109 783 600 
Q 550 1309 550 2009 
Q 550 2706 781 3412 
Q 1013 4119 1484 4856 
L 1984 4856 
z
" transform="scale(0.015625)"/>
       <path id="DejaVuSans-75" d="M 544 1381 
L 544 3500 
L 1119 3500 
L 1119 1403 
Q 1119 906 1312 657 
Q 1506 409 1894 409 
Q 2359 409 2629 706 
Q 2900 1003 2900 1516 
L 2900 3500 
L 3475 3500 
L 3475 0 
L 2900 0 
L 2900 538 
Q 2691 219 2414 64 
Q 2138 -91 1772 -91 
Q 1169 -91 856 284 
Q 544 659 544 1381 
z
M 1991 3584 
L 1991 3584 
z
" transform="scale(0.015625)"/>
       <path id="DejaVuSans-6d" d="M 3328 2828 
Q 3544 3216 3844 3400 
Q 4144 3584 4550 3584 
Q 5097 3584 5394 3201 
Q 5691 2819 5691 2113 
L 5691 0 
L 5113 0 
L 5113 2094 
Q 5113 2597 4934 2840 
Q 4756 3084 4391 3084 
Q 3944 3084 3684 2787 
Q 3425 2491 3425 1978 
L 3425 0 
L 2847 0 
L 2847 2094 
Q 2847 2600 2669 2842 
Q 2491 3084 2119 3084 
Q 1678 3084 1418 2786 
Q 1159 2488 1159 1978 
L 1159 0 
L 581 0 
L 581 3500 
L 1159 3500 
L 1159 2956 
Q 1356 3278 1631 3431 
Q 1906 3584 2284 3584 
Q 2666 3584 2933 3390 
Q 3200 3197 3328 2828 
z
" transform="scale(0.015625)"/>
       <path id="DejaVuSans-29" d="M 513 4856 
L 1013 4856 
Q 1481 4119 1714 3412 
Q 1947 2706 1947 2009 
Q 1947 1309 1714 600 
Q 1481 -109 1013 -844 
L 513 -844 
Q 928 -128 1133 580 
Q 1338 1288 1338 2009 
Q 1338 2731 1133 3434 
Q 928 4138 513 4856 
z
" transform="scale(0.015625)"/>
      </defs>
      <use xlink:href="#DejaVuSans-59"/>
      <use xlink:href="#DejaVuSans-20" transform="translate(61.083984 0)"/>
      <use xlink:href="#DejaVuSans-28" transform="translate(92.871094 0)"/>
      <use xlink:href="#DejaVuSans-75" transform="translate(131.884766 0)"/>
      <use xlink:href="#DejaVuSans-6d" transform="translate(195.263672 0)"/>
      <use xlink:href="#DejaVuSans-29" transform="translate(292.675781 0)"/>
     </g>
    </g>
   </g>
   <g id="line2d_12">
    <path d="M 72.615138 27.736402 
L 72.699942 52.81919 
L 72.942104 62.466417 
L 73.28501 68.254753 
L 73.669274 72.113643 
L 74.228083 75.972534 
L 74.988214 79.831424 
L 75.940121 83.690315 
L 79.614181 97.196432 
L 80.351665 101.055323 
L 80.87733 104.914213 
L 81.365125 110.702549 
L 81.736023 118.42033 
L 82.235978 133.855892 
L 82.373531 143.503119 
L 82.279328 151.2209 
L 81.818975 162.797572 
L 80.765934 187.88036 
L 80.84807 197.527587 
L 80.848278 205.245368 
L 80.481027 220.68093 
L 80.046441 241.904828 
L 79.953263 251.552055 
L 79.701655 257.340391 
L 78.981824 266.987617 
L 78.339217 276.634844 
L 78.019422 284.352625 
L 77.932534 292.070406 
L 78.148838 301.717632 
L 78.375848 313.294304 
L 78.333866 321.012085 
L 78.140583 326.800421 
L 77.743846 332.588757 
L 76.965917 340.306538 
L 73.252959 375.036553 
L 72.914598 380.824889 
L 72.696212 388.54267 
L 72.617976 402.048787 
L 72.615102 411.696014 
L 72.615102 411.696014 
" clip-path="url(#p6fe830a9fa)" style="fill: none; stroke: #00e3ff; stroke-width: 2.25; stroke-linecap: square"/>
   </g>
   <g id="line2d_13">
    <path d="M 72.616149 27.36 
L 72.66566 33.438392 
L 72.759114 35.464523 
L 72.984514 37.490653 
L 73.471499 39.516784 
L 74.416006 41.542915 
L 76.06561 43.569045 
L 78.67277 45.595176 
L 82.430191 47.621307 
L 87.424141 49.647437 
L 93.637914 51.673568 
L 100.999955 53.699698 
L 109.428152 55.725829 
L 118.819575 57.75196 
L 139.587441 61.804221 
L 160.130761 65.856482 
L 169.089209 67.882613 
L 176.752208 69.908744 
L 183.063349 71.934874 
L 188.135519 73.961005 
L 192.161015 75.987136 
L 195.318536 78.013266 
L 197.716945 80.039397 
L 199.394826 82.065528 
L 200.364909 84.091658 
L 200.670642 86.117789 
L 200.420264 88.14392 
L 199.78029 90.17005 
L 196.515632 98.274573 
L 195.974855 100.300704 
L 195.603803 102.326834 
L 195.223588 106.379095 
L 194.777437 110.431357 
L 194.344998 112.457487 
L 193.071254 116.509749 
L 191.676936 120.56201 
L 189.899893 126.640402 
L 188.805042 130.692663 
L 188.372814 132.718794 
L 188.077998 134.744925 
L 187.853596 138.797186 
L 187.628513 144.875578 
L 187.329911 150.95397 
L 187.070383 161.084623 
L 187.051286 165.136884 
L 187.404345 169.189146 
L 188.211591 175.267538 
L 189.347149 187.424322 
L 190.100729 191.476583 
L 191.094753 195.528844 
L 192.884162 201.607236 
L 194.411032 205.659497 
L 195.373499 207.685628 
L 197.7103 211.737889 
L 200.149685 215.790151 
L 201.177094 217.816281 
L 201.998236 219.842412 
L 202.600418 221.868543 
L 202.997047 223.894673 
L 203.217377 225.920804 
L 203.273052 229.973065 
L 202.98972 234.025327 
L 202.374919 238.077588 
L 201.888561 240.103719 
L 201.260044 242.129849 
L 199.672893 246.182111 
L 194.569346 258.338894 
L 192.349724 262.391156 
L 182.175482 278.600201 
L 172.562642 292.783116 
L 170.165341 296.835377 
L 168.070476 300.887638 
L 165.234963 306.96603 
L 162.90051 311.018291 
L 158.901093 317.096683 
L 156.018723 321.148945 
L 154.345759 323.175075 
L 152.452077 325.201206 
L 150.333488 327.227337 
L 145.537304 331.279598 
L 140.208101 335.331859 
L 134.415169 339.384121 
L 128.132325 343.436382 
L 101.983591 359.645427 
L 86.253286 369.77608 
L 83.531358 371.802211 
L 81.214264 373.828342 
L 79.326117 375.854472 
L 77.824537 377.880603 
L 76.634256 379.906734 
L 75.680649 381.932864 
L 74.908293 383.958995 
L 74.283485 385.985126 
L 73.787328 388.011256 
L 73.12837 392.063518 
L 72.810556 396.115779 
L 72.665903 402.194171 
L 72.615519 424.481608 
L 72.615032 430.56 
L 72.615032 430.56 
" clip-path="url(#p6fe830a9fa)" style="fill: none; stroke: #efe645; stroke-width: 2.25; stroke-linecap: square"/>
   </g>
   <g id="line2d_14">
    <path d="M 72.616034 29.546527 
L 72.660796 35.428351 
L 72.743338 37.388959 
L 72.938185 39.349567 
L 73.350561 41.310175 
L 74.137028 43.270783 
L 75.496802 45.231391 
L 77.645415 47.191999 
L 80.783457 49.152607 
L 85.082793 51.113215 
L 90.700698 53.073823 
L 97.80137 55.034431 
L 106.54484 56.995039 
L 117.024831 58.955647 
L 129.185957 60.916255 
L 142.777378 62.876863 
L 172.468167 66.798079 
L 202.129627 70.719295 
L 215.89419 72.679903 
L 228.566044 74.640511 
L 239.950574 76.601119 
L 249.896671 78.561727 
L 258.279978 80.522335 
L 265.00319 82.482943 
L 270.020445 84.443551 
L 273.386195 86.404159 
L 275.307804 88.364767 
L 276.157841 90.325375 
L 276.41022 92.285983 
L 276.516991 94.246591 
L 276.796299 96.207199 
L 277.395875 98.167807 
L 278.330998 100.128415 
L 279.541794 102.089023 
L 283.616348 107.970846 
L 284.591172 109.931454 
L 285.134062 111.892062 
L 285.18643 113.85267 
L 284.77476 115.813278 
L 283.998761 117.773886 
L 281.879359 121.695102 
L 278.538251 127.576926 
L 276.614339 131.498142 
L 275.082224 135.419358 
L 272.977119 141.301182 
L 268.728434 151.104222 
L 265.285603 160.907262 
L 264.484067 162.86787 
L 263.544109 164.828478 
L 258.133671 174.631518 
L 257.261789 176.592126 
L 256.558941 178.552733 
L 256.065717 180.513341 
L 255.036772 186.395165 
L 254.342371 188.355773 
L 253.309564 190.316381 
L 251.941966 192.276989 
L 250.275278 194.237597 
L 248.349902 196.198205 
L 243.934419 200.119421 
L 234.455123 207.961853 
L 231.863392 209.922461 
L 226.132744 213.843677 
L 219.850625 217.764893 
L 203.581794 227.567933 
L 200.63819 229.528541 
L 195.356844 233.449757 
L 187.85557 239.331581 
L 180.15112 245.213405 
L 177.850546 247.174013 
L 175.762647 249.134621 
L 173.895792 251.095229 
L 172.267935 253.055837 
L 170.912124 255.016444 
L 169.850705 256.977052 
L 169.060045 258.93766 
L 167.946137 262.858876 
L 166.461203 268.7407 
L 166.097788 270.701308 
L 165.871298 272.661916 
L 165.267387 284.425564 
L 165.300539 288.34678 
L 165.743442 292.267996 
L 166.545945 298.14982 
L 166.71966 302.071036 
L 166.624333 305.992252 
L 166.253158 309.913468 
L 165.546675 313.834684 
L 164.66874 317.7559 
L 164.143072 319.716508 
L 163.464833 321.677116 
L 162.550812 323.637724 
L 161.345738 325.598332 
L 159.829379 327.55894 
L 158.003297 329.519547 
L 155.87332 331.480155 
L 153.443099 333.440763 
L 150.722778 335.401371 
L 147.742253 337.361979 
L 141.21023 341.283195 
L 134.191118 345.204411 
L 126.73361 349.125627 
L 114.901211 355.007451 
L 99.154198 362.849883 
L 91.514859 366.771099 
L 87.962204 368.731707 
L 84.770178 370.692315 
L 82.042562 372.652923 
L 79.810741 374.613531 
L 78.038236 376.574139 
L 76.652246 378.534747 
L 75.575962 380.495355 
L 74.745259 382.455963 
L 74.110979 384.416571 
L 73.635569 386.377179 
L 73.047013 390.298395 
L 72.782494 394.219611 
L 72.658567 400.101435 
L 72.615091 419.707514 
L 72.615091 419.707514 
" clip-path="url(#p6fe830a9fa)" style="fill: none; stroke: #e935a1; stroke-width: 2.25; stroke-linecap: square"/>
   </g>
   <g id="patch_3">
    <path d="M 72.615 450.72 
L 72.615 7.2 
" style="fill: none; stroke: #000000; stroke-width: 1.875; stroke-linejoin: miter; stroke-linecap: square"/>
   </g>
   <g id="text_7">
    <!-- L1 -->
    <g transform="translate(295.815 76.597583) scale(0.2 -0.2)">
     <defs>
      <path id="DejaVuSans-4c" d="M 628 4666 
L 1259 4666 
L 1259 531 
L 3531 531 
L 3531 0 
L 628 0 
L 628 4666 
z
" transform="scale(0.015625)"/>
      <path id="DejaVuSans-31" d="M 794 531 
L 1825 531 
L 1825 4091 
L 703 3866 
L 703 4441 
L 1819 4666 
L 2450 4666 
L 2450 531 
L 3481 531 
L 3481 0 
L 794 0 
L 794 531 
z
" transform="scale(0.015625)"/>
     </defs>
     <use xlink:href="#DejaVuSans-4c"/>
     <use xlink:href="#DejaVuSans-31" transform="translate(55.712891 0)"/>
    </g>
   </g>
   <g id="text_8">
    <!-- L2/3 -->
    <g transform="translate(295.815 118.315151) scale(0.2 -0.2)">
     <defs>
      <path id="DejaVuSans-2f" d="M 1625 4666 
L 2156 4666 
L 531 -594 
L 0 -594 
L 1625 4666 
z
" transform="scale(0.015625)"/>
      <path id="DejaVuSans-33" d="M 2597 2516 
Q 3050 2419 3304 2112 
Q 3559 1806 3559 1356 
Q 3559 666 3084 287 
Q 2609 -91 1734 -91 
Q 1441 -91 1130 -33 
Q 819 25 488 141 
L 488 750 
Q 750 597 1062 519 
Q 1375 441 1716 441 
Q 2309 441 2620 675 
Q 2931 909 2931 1356 
Q 2931 1769 2642 2001 
Q 2353 2234 1838 2234 
L 1294 2234 
L 1294 2753 
L 1863 2753 
Q 2328 2753 2575 2939 
Q 2822 3125 2822 3475 
Q 2822 3834 2567 4026 
Q 2313 4219 1838 4219 
Q 1578 4219 1281 4162 
Q 984 4106 628 3988 
L 628 4550 
Q 988 4650 1302 4700 
Q 1616 4750 1894 4750 
Q 2613 4750 3031 4423 
Q 3450 4097 3450 3541 
Q 3450 3153 3228 2886 
Q 3006 2619 2597 2516 
z
" transform="scale(0.015625)"/>
     </defs>
     <use xlink:href="#DejaVuSans-4c"/>
     <use xlink:href="#DejaVuSans-32" transform="translate(55.712891 0)"/>
     <use xlink:href="#DejaVuSans-2f" transform="translate(119.335938 0)"/>
     <use xlink:href="#DejaVuSans-33" transform="translate(153.027344 0)"/>
    </g>
   </g>
   <g id="text_9">
    <!-- L4 -->
    <g transform="translate(295.815 180.139194) scale(0.2 -0.2)">
     <use xlink:href="#DejaVuSans-4c"/>
     <use xlink:href="#DejaVuSans-34" transform="translate(55.712891 0)"/>
    </g>
   </g>
   <g id="text_10">
    <!-- L5 -->
    <g transform="translate(295.815 242.930595) scale(0.2 -0.2)">
     <defs>
      <path id="DejaVuSans-35" d="M 691 4666 
L 3169 4666 
L 3169 4134 
L 1269 4134 
L 1269 2991 
Q 1406 3038 1543 3061 
Q 1681 3084 1819 3084 
Q 2600 3084 3056 2656 
Q 3513 2228 3513 1497 
Q 3513 744 3044 326 
Q 2575 -91 1722 -91 
Q 1428 -91 1123 -41 
Q 819 9 494 109 
L 494 744 
Q 775 591 1075 516 
Q 1375 441 1709 441 
Q 2250 441 2565 725 
Q 2881 1009 2881 1497 
Q 2881 1984 2565 2268 
Q 2250 2553 1709 2553 
Q 1456 2553 1204 2497 
Q 953 2441 691 2322 
L 691 4666 
z
" transform="scale(0.015625)"/>
     </defs>
     <use xlink:href="#DejaVuSans-4c"/>
     <use xlink:href="#DejaVuSans-35" transform="translate(55.712891 0)"/>
    </g>
   </g>
   <g id="text_11">
    <!-- L6 -->
    <g transform="translate(295.815 320.028471) scale(0.2 -0.2)">
     <use xlink:href="#DejaVuSans-4c"/>
     <use xlink:href="#DejaVuSans-36" transform="translate(55.712891 0)"/>
    </g>
   </g>
   <g id="text_12">
    <!-- WM -->
    <g transform="translate(295.815 383.009411) scale(0.2 -0.2)">
     <defs>
      <path id="DejaVuSans-57" d="M 213 4666 
L 850 4666 
L 1831 722 
L 2809 4666 
L 3519 4666 
L 4500 722 
L 5478 4666 
L 6119 4666 
L 4947 0 
L 4153 0 
L 3169 4050 
L 2175 0 
L 1381 0 
L 213 4666 
z
" transform="scale(0.015625)"/>
      <path id="DejaVuSans-4d" d="M 628 4666 
L 1569 4666 
L 2759 1491 
L 3956 4666 
L 4897 4666 
L 4897 0 
L 4281 0 
L 4281 4097 
L 3078 897 
L 2444 897 
L 1241 4097 
L 1241 0 
L 628 0 
L 628 4666 
z
" transform="scale(0.015625)"/>
     </defs>
     <use xlink:href="#DejaVuSans-57"/>
     <use xlink:href="#DejaVuSans-4d" transform="translate(98.876953 0)"/>
    </g>
   </g>
  </g>
 </g>
 <defs>
  <clipPath id="p6fe830a9fa">
   <rect x="72.615" y="7.2" width="223.2" height="443.52"/>
  </clipPath>
 </defs>
</svg>
